<svg width="41" height="42" viewBox="0 0 41 42" fill="none" xmlns="http://www.w3.org/2000/svg">
<path fill-rule="evenodd" clip-rule="evenodd" d="M27.3337 15.75C27.3337 17.6065 26.6137 19.387 25.3322 20.6997C24.0507 22.0125 22.3126 22.75 20.5003 22.75C18.688 22.75 16.9499 22.0125 15.6684 20.6997C14.3869 19.387 13.667 17.6065 13.667 15.75C13.667 13.8935 14.3869 12.113 15.6684 10.8003C16.9499 9.4875 18.688 8.75 20.5003 8.75C22.3126 8.75 24.0507 9.4875 25.3322 10.8003C26.6137 12.113 27.3337 13.8935 27.3337 15.75ZM23.917 15.75C23.917 16.6783 23.557 17.5685 22.9163 18.2249C22.2755 18.8813 21.4065 19.25 20.5003 19.25C19.5942 19.25 18.7251 18.8813 18.0844 18.2249C17.4436 17.5685 17.0837 16.6783 17.0837 15.75C17.0837 14.8217 17.4436 13.9315 18.0844 13.2751C18.7251 12.6187 19.5942 12.25 20.5003 12.25C21.4065 12.25 22.2755 12.6187 22.9163 13.2751C23.557 13.9315 23.917 14.8217 23.917 15.75Z" fill="red"/>
<path fill-rule="evenodd" clip-rule="evenodd" d="M20.5002 1.75C10.122 1.75 1.7085 10.3688 1.7085 21C1.7085 31.6313 10.122 40.25 20.5002 40.25C30.8783 40.25 39.2918 31.6313 39.2918 21C39.2918 10.3688 30.8783 1.75 20.5002 1.75ZM5.12516 21C5.12516 24.6575 6.3432 28.0245 8.38466 30.6985C9.81871 28.7702 11.6683 27.2075 13.7892 26.1323C15.9101 25.0571 18.2448 24.4984 20.6112 24.5C22.9471 24.4972 25.2529 25.0409 27.3525 26.0897C29.4522 27.1384 31.2903 28.6645 32.7267 30.5515C34.2069 28.5628 35.2035 26.2416 35.6341 23.78C36.0647 21.3184 35.9169 18.7872 35.2029 16.3957C34.489 14.0043 33.2293 11.8213 31.5283 10.0276C29.8272 8.2338 27.7337 6.88075 25.4208 6.08039C23.108 5.28003 20.6423 5.05535 18.2278 5.42495C15.8134 5.79456 13.5196 6.74781 11.5361 8.20584C9.55273 9.66388 7.93676 11.5848 6.82193 13.8096C5.7071 16.0344 5.12547 18.4992 5.12516 21ZM20.5002 36.75C16.9706 36.7559 13.5475 35.512 10.8105 33.229C11.912 31.6131 13.3785 30.2937 15.0849 29.3833C16.7913 28.4729 18.6872 27.9983 20.6112 28C22.5112 27.9983 24.3841 28.461 26.0744 29.3498C27.7647 30.2385 29.2236 31.5276 30.3299 33.11C27.5718 35.4673 24.0922 36.7558 20.5002 36.75Z" fill="red"/>
</svg>
