<svg width="35" height="28" viewBox="0 0 35 28" fill="none" xmlns="http://www.w3.org/2000/svg">
<path d="M31.25 5.6875H28.875V4.5C28.875 3.55517 28.4997 2.64903 27.8316 1.98093C27.1635 1.31283 26.2573 0.9375 25.3125 0.9375H3.9375C2.99267 0.9375 2.08653 1.31283 1.41843 1.98093C0.750334 2.64903 0.375 3.55517 0.375 4.5V18.75C0.375 19.6948 0.750334 20.601 1.41843 21.2691C2.08653 21.9372 2.99267 22.3125 3.9375 22.3125H20.5625V23.5C20.5625 24.4448 20.9378 25.351 21.6059 26.0191C22.274 26.6872 23.1802 27.0625 24.125 27.0625H31.25C32.1948 27.0625 33.101 26.6872 33.7691 26.0191C34.4372 25.351 34.8125 24.4448 34.8125 23.5V9.25C34.8125 8.30517 34.4372 7.39903 33.7691 6.73093C33.101 6.06283 32.1948 5.6875 31.25 5.6875ZM3.9375 19.9375C3.62256 19.9375 3.32051 19.8124 3.09781 19.5897C2.87511 19.367 2.75 19.0649 2.75 18.75V4.5C2.75 4.18506 2.87511 3.88301 3.09781 3.66031C3.32051 3.43761 3.62256 3.3125 3.9375 3.3125H25.3125C25.6274 3.3125 25.9295 3.43761 26.1522 3.66031C26.3749 3.88301 26.5 4.18506 26.5 4.5V5.6875H24.125C23.1802 5.6875 22.274 6.06283 21.6059 6.73093C20.9378 7.39903 20.5625 8.30517 20.5625 9.25V19.9375H3.9375ZM32.4375 23.5C32.4375 23.8149 32.3124 24.117 32.0897 24.3397C31.867 24.5624 31.5649 24.6875 31.25 24.6875H24.125C23.8101 24.6875 23.508 24.5624 23.2853 24.3397C23.0626 24.117 22.9375 23.8149 22.9375 23.5V9.25C22.9375 8.93506 23.0626 8.63301 23.2853 8.41031C23.508 8.18761 23.8101 8.0625 24.125 8.0625H31.25C31.5649 8.0625 31.867 8.18761 32.0897 8.41031C32.3124 8.63301 32.4375 8.93506 32.4375 9.25V23.5ZM18.1875 25.875C18.1875 26.1899 18.0624 26.492 17.8397 26.7147C17.617 26.9374 17.3149 27.0625 17 27.0625H11.0625C10.7476 27.0625 10.4455 26.9374 10.2228 26.7147C10.0001 26.492 9.875 26.1899 9.875 25.875C9.875 25.5601 10.0001 25.258 10.2228 25.0353C10.4455 24.8126 10.7476 24.6875 11.0625 24.6875H17C17.3149 24.6875 17.617 24.8126 17.8397 25.0353C18.0624 25.258 18.1875 25.5601 18.1875 25.875ZM30.0625 11.625C30.0625 11.9399 29.9374 12.242 29.7147 12.4647C29.492 12.6874 29.1899 12.8125 28.875 12.8125H26.5C26.1851 12.8125 25.883 12.6874 25.6603 12.4647C25.4376 12.242 25.3125 11.9399 25.3125 11.625C25.3125 11.3101 25.4376 11.008 25.6603 10.7853C25.883 10.5626 26.1851 10.4375 26.5 10.4375H28.875C29.1899 10.4375 29.492 10.5626 29.7147 10.7853C29.9374 11.008 30.0625 11.3101 30.0625 11.625Z" fill="white"/>
</svg>
