<svg width="31" height="23" viewBox="0 0 31 23" fill="none" xmlns="http://www.w3.org/2000/svg">
<path d="M24.9851 20.1536L5.64183 0.810903L5.63769 0.806177C5.53297 0.702307 5.40881 0.620081 5.27231 0.564194C5.13581 0.508307 4.98964 0.479852 4.84214 0.480455C4.69465 0.481059 4.54871 0.510708 4.41267 0.567711C4.27663 0.624713 4.15315 0.707952 4.04928 0.812675C3.94541 0.917398 3.86319 1.04155 3.8073 1.17806C3.75141 1.31456 3.72296 1.46073 3.72356 1.60823C3.72478 1.90611 3.84428 2.19131 4.05578 2.40109L5.74934 4.09464C3.69552 5.50126 1.92768 7.28534 0.539895 9.35193C0.31327 9.68653 0.192139 10.0814 0.192139 10.4855C0.192139 10.8896 0.31327 11.2845 0.539895 11.6191C4.08236 16.8622 9.69821 19.9339 15.3141 19.8955C17.1331 19.902 18.9401 19.5992 20.6576 18.9999L23.3991 21.7414C23.6103 21.9458 23.8933 22.0592 24.1872 22.0572C24.4811 22.0552 24.7625 21.938 24.971 21.7307C25.1794 21.5235 25.2982 21.2427 25.3018 20.9488C25.3055 20.6549 25.1936 20.3713 24.9904 20.1589L24.9851 20.1536ZM15.3141 16.8468C14.2501 16.8464 13.2032 16.5794 12.269 16.0701C11.3348 15.5608 10.5431 14.8255 9.96638 13.9314C9.38961 13.0374 9.04611 12.013 8.96728 10.9519C8.88844 9.89085 9.07679 8.82695 9.51509 7.85744L11.2843 9.62661C11.1418 10.2981 11.1693 10.9946 11.3644 11.6528C11.5594 12.3109 11.9159 12.9099 12.4013 13.3953C12.8867 13.8807 13.4857 14.2372 14.1438 14.4322C14.802 14.6273 15.4985 14.6548 16.17 14.5123L17.9392 16.2815C17.1146 16.6554 16.2194 16.8482 15.3141 16.8468ZM30.0882 9.34898C26.5458 4.10291 20.9299 1.03124 15.3141 1.06963C13.495 1.06304 11.6881 1.36586 9.97053 1.96514L12.6878 4.68239C13.8669 4.1488 15.1806 3.98722 16.4539 4.2192C17.7271 4.45118 18.8994 5.06569 19.8146 5.98084C20.7297 6.89599 21.3442 8.06831 21.5762 9.34157C21.8082 10.6148 21.6466 11.9285 21.113 13.1076L24.8782 16.8728C26.9324 15.4664 28.7004 13.6823 30.0882 11.6155C30.3147 11.281 30.4358 10.8862 30.4358 10.4822C30.4358 10.0782 30.3147 9.68352 30.0882 9.34898Z" fill="#717374"/>
<path d="M15.3139 6.36295C15.0263 6.36299 14.7394 6.39308 14.458 6.45274L19.3437 11.3379C19.4711 10.7377 19.4629 10.1166 19.3195 9.51998C19.1761 8.92337 18.9013 8.36633 18.5151 7.88954C18.1289 7.41275 17.641 7.02825 17.0872 6.76414C16.5334 6.50002 15.9275 6.36296 15.3139 6.36295Z" fill="#717374"/>
</svg>
