<svg width="15" height="10" viewBox="0 0 15 10" fill="none" xmlns="http://www.w3.org/2000/svg">
<path fill-rule="evenodd" clip-rule="evenodd" d="M0.969873 4.55955C2.39254 0.889545 6.52054 -0.931788 10.1899 0.490879C12.0573 1.215 13.5338 2.69149 14.2579 4.55888C14.288 4.6365 14.288 4.72259 14.2579 4.80021C12.8352 8.46955 8.70721 10.2909 5.03787 8.86821C3.17048 8.14409 1.694 6.6676 0.969873 4.80021C0.93973 4.72259 0.93973 4.6365 0.969873 4.55888V4.55955ZM5.27854 8.24621C8.56454 9.52021 12.2559 7.92488 13.5885 4.67955C12.9152 3.04208 11.5994 1.75273 9.94854 1.11288C6.66387 -0.161121 2.97254 1.43421 1.63987 4.67955C2.31318 6.31701 3.62905 7.60636 5.27987 8.24621H5.27854ZM7.61387 7.34621C6.14111 7.34621 4.94721 6.1523 4.94721 4.67955C4.94721 3.20679 6.14111 2.01288 7.61387 2.01288C9.08663 2.01288 10.2805 3.20679 10.2805 4.67955C10.2805 6.1523 9.08663 7.34621 7.61387 7.34621ZM7.61426 6.67953C8.71883 6.67953 9.61426 5.7841 9.61426 4.67953C9.61426 3.57497 8.71883 2.67953 7.61426 2.67953C6.50969 2.67953 5.61426 3.57497 5.61426 4.67953C5.61426 5.7841 6.50969 6.67953 7.61426 6.67953Z" fill="white"/>
</svg>
