<svg width="23" height="18" viewBox="0 0 23 18" fill="none" xmlns="http://www.w3.org/2000/svg">
<path d="M11.5996 12C13.2565 12 14.5996 10.6569 14.5996 9C14.5996 7.34315 13.2565 6 11.5996 6C9.94275 6 8.59961 7.34315 8.59961 9C8.59961 10.6569 9.94275 12 11.5996 12Z" fill="#999999"/>
<path fill-rule="evenodd" clip-rule="evenodd" d="M0.92302 8.4467C2.41027 3.97571 6.62752 0.75 11.6001 0.75C16.5704 0.75 20.7861 3.97271 22.2752 8.44045C22.3955 8.80152 22.3956 9.19217 22.2755 9.55331C20.7882 14.0243 16.571 17.25 11.5984 17.25C6.62808 17.25 2.41245 14.0273 0.923348 9.55955C0.803006 9.19849 0.802892 8.80783 0.92302 8.4467ZM16.8496 9C16.8496 11.8995 14.4991 14.25 11.5996 14.25C8.70011 14.25 6.34961 11.8995 6.34961 9C6.34961 6.1005 8.70011 3.75 11.5996 3.75C14.4991 3.75 16.8496 6.1005 16.8496 9Z" fill="#999999"/>
</svg>
