<svg width="562" height="520" viewBox="0 0 562 520" fill="none" xmlns="http://www.w3.org/2000/svg">
<path fill-rule="evenodd" clip-rule="evenodd" d="M426.685 0H561.423V114.914C561.423 154.766 537.31 190.045 500.919 210.674C537.312 231.307 561.423 266.584 561.423 306.436V421.35H516.511V306.436C516.511 264.3 476.089 229.826 426.685 229.826H336.858V391.895C309.334 370.818 291.946 340.276 291.946 306.436V114.914C291.946 51.7108 352.58 0 426.685 0ZM134.753 0H0.0144196V114.914C0.0144196 178.117 60.6477 229.828 134.753 229.828H224.579V306.438C224.579 348.574 184.158 383.047 134.753 383.047H44.9265V306.438C44.9265 287.287 53.2781 269.718 67.0293 256.251C52.8712 251.283 39.6058 244.818 27.5209 237.075C10.2833 256.384 0.0144196 280.435 0.0144196 306.436V421.35H134.753C208.858 421.35 269.491 369.639 269.491 306.436V191.522H134.753C85.3481 191.522 44.9265 157.05 44.9265 114.914V38.3033H134.753C184.158 38.3033 224.579 72.7778 224.579 114.912V153.217H269.491V114.912C269.491 51.7108 208.858 0 134.753 0ZM426.685 38.3033H516.511V114.912C516.511 157.048 476.089 191.52 426.685 191.52H336.858V114.912C336.858 72.7758 377.28 38.3033 426.685 38.3033Z" fill="white"/>
<path d="M183.451 454.299C185.069 454.299 186.381 453.826 187.391 452.878C188.399 451.932 188.905 450.648 188.905 449.023C188.905 445.575 187.087 443.851 183.451 443.851C179.815 443.851 177.895 445.575 177.895 449.023C177.895 452.472 179.746 454.297 183.451 454.297V454.299Z" fill="white"/>
<path d="M196.682 449.023C196.682 452.541 198.534 454.297 202.237 454.297C203.853 454.297 205.181 453.808 206.228 452.826C207.27 451.847 207.793 450.578 207.793 449.023C207.793 447.468 207.27 446.218 206.228 445.27C205.183 444.324 203.853 443.851 202.237 443.851C198.532 443.851 196.682 445.575 196.682 449.023Z" fill="white"/>
<path d="M192.844 441.316C194.461 441.316 195.789 440.826 196.834 439.845C197.879 438.867 198.401 437.599 198.401 436.042C198.401 434.485 197.879 433.236 196.834 432.289C195.789 431.343 194.461 430.869 192.844 430.869C189.141 430.869 187.288 432.593 187.288 436.042C187.288 439.49 189.141 441.316 192.844 441.316Z" fill="white"/>
<path d="M249.306 474.584C248.563 475.87 248.194 479.757 248.194 486.247H217.187V465.557L209.307 469.513C207.756 470.323 206.985 471.914 206.985 474.279V486.247H199.51V469.308C194.056 472.014 191.161 473.501 190.822 473.77C189.676 474.717 189.106 476.408 189.106 478.841L189.207 481.987V486.247H181.631V474.178C178.6 475.665 175.603 477.188 172.641 478.743C171.765 479.488 171.329 481.989 171.329 486.249H153.754C152.743 484.627 152.136 483.679 151.936 483.408C151.126 482.395 149.31 480.941 146.481 479.048C143.922 477.222 142.341 475.802 141.733 474.787C141.195 473.841 140.555 472.591 139.814 471.034L137.895 474.684C137.49 475.496 136.077 476.748 133.653 478.437C130.489 480.736 127.796 483.34 125.573 486.247C119.244 486.383 115.339 486.687 113.856 487.161C110.085 488.445 108.2 491.557 108.2 496.491V514.749C108.2 515.695 108.688 516.676 109.664 517.692C110.639 518.705 111.599 519.211 112.543 519.211H120.321V498.418H125.573C128.132 504.774 132.811 507.953 139.614 507.953C142.778 507.953 145.657 507.091 148.251 505.367C150.842 503.643 152.711 501.325 153.855 498.42H252.942C254.219 498.42 255.466 497.863 256.679 496.746C257.892 495.631 258.497 494.464 258.497 493.246V467.281C253.043 470.932 249.978 473.367 249.306 474.584ZM139.614 497.608C136.111 497.608 134.362 495.85 134.362 492.334C134.362 488.818 136.111 487.161 139.614 487.161C143.116 487.161 144.766 488.885 144.766 492.334C144.766 495.782 143.049 497.608 139.614 497.608Z" fill="white"/>
<path d="M251.83 508.258C248.397 508.258 246.68 509.983 246.68 513.431C246.68 516.879 248.397 518.604 251.83 518.604C255.264 518.604 256.983 516.879 256.983 513.431C256.983 509.983 255.266 508.258 251.83 508.258Z" fill="white"/>
<path d="M234.255 508.258C230.821 508.258 229.104 509.983 229.104 513.431C229.104 516.879 230.821 518.604 234.255 518.604C237.689 518.604 239.408 516.879 239.408 513.431C239.408 509.983 237.691 508.258 234.255 508.258Z" fill="white"/>
<path d="M317.483 474.787C316.742 476.004 316.371 479.825 316.371 486.25H289.403V473.977C284.016 476.683 281.12 478.204 280.715 478.542C278.492 480.3 277.383 483.004 277.383 486.656V504.304H264.051C264.387 507.753 265.835 510.626 268.394 512.925C270.953 515.225 273.949 516.374 277.383 516.374C280.817 516.374 283.68 515.223 285.967 512.925C288.257 510.626 289.403 507.753 289.403 504.304V498.423H321.018C322.297 498.423 323.558 497.883 324.806 496.8C326.051 495.719 326.674 494.536 326.674 493.25V467.285C321.018 471.478 317.954 473.979 317.483 474.791V474.787Z" fill="white"/>
<path d="M315.262 508.764C311.826 508.764 310.109 510.49 310.109 513.936C310.109 517.383 311.826 519.211 315.262 519.211C318.698 519.211 320.514 517.452 320.514 513.936C320.514 510.42 318.762 508.764 315.262 508.764Z" fill="white"/>
<path d="M342.029 441.113V498.418H352.431V429.244C350.141 430.801 347.819 432.39 345.462 434.013C343.17 435.974 342.026 438.339 342.026 441.113H342.029Z" fill="white"/>
<path d="M379.095 465.76C376.064 466.098 373.641 467.046 371.823 468.601C366.368 473.334 363.641 479.217 363.641 486.249V498.421H391.822C393.371 498.421 394.584 497.441 395.458 495.48C396.13 493.993 396.469 492.37 396.469 490.612V459.777C393.707 462.347 390.642 464.038 387.277 464.848L379.095 465.762V465.76ZM386.066 486.249H374.046C373.977 485.843 373.947 485.437 373.947 485.033C373.947 482.668 374.854 480.571 376.672 478.745C378.49 476.92 380.612 476.006 383.035 476.006C383.979 476.006 384.987 476.175 386.066 476.511V486.249Z" fill="white"/>
<path d="M411.822 441.113V498.418H422.224V429.244C419.934 430.801 417.612 432.39 415.255 434.013C412.964 435.974 411.82 438.339 411.82 441.113H411.822Z" fill="white"/>
<path d="M444.549 478.54C442.326 480.298 441.216 483.002 441.216 486.653V504.302H427.884C428.22 507.886 429.668 510.725 432.227 512.823C434.651 514.852 437.647 515.866 441.216 515.866C444.786 515.866 447.596 514.816 449.853 512.72C452.109 510.623 453.237 507.816 453.237 504.302V473.977C447.849 476.682 444.954 478.203 444.549 478.542V478.54Z" fill="white"/>
</svg>
