<svg width="35" height="35" viewBox="0 0 35 35" fill="none" xmlns="http://www.w3.org/2000/svg">
<g clip-path="url(#clip0_652_75)">
<path d="M29.5876 13.282H27.4873V10.4816C27.4873 5.07707 23.0905 0.680244 17.686 0.680244C12.2814 0.680244 7.88464 5.07707 7.88464 10.4816V13.282H5.78435C5.69239 13.2819 5.60132 13.3 5.51635 13.3352C5.43138 13.3703 5.35418 13.4219 5.28915 13.4869C5.22413 13.5519 5.17256 13.6291 5.1374 13.7141C5.10224 13.7991 5.08417 13.8902 5.08423 13.9821V31.4846C5.08423 33.029 6.34014 34.2849 7.88464 34.2849H27.4874C29.0318 34.2849 30.2877 33.029 30.2877 31.4845V13.9821C30.2878 13.8902 30.2697 13.7991 30.2345 13.7141C30.1994 13.6291 30.1478 13.5519 30.0828 13.4869C30.0178 13.4219 29.9406 13.3703 29.8556 13.3352C29.7706 13.3 29.6796 13.2819 29.5876 13.282ZM19.7822 27.9068C19.793 28.0046 19.7831 28.1037 19.7531 28.1975C19.723 28.2912 19.6736 28.3776 19.6079 28.451C19.5422 28.5243 19.4618 28.583 19.3719 28.6232C19.282 28.6634 19.1847 28.6841 19.0862 28.6841H16.2858C16.1873 28.6841 16.09 28.6634 16.0001 28.6232C15.9102 28.583 15.8298 28.5243 15.7641 28.451C15.6984 28.3776 15.649 28.2912 15.6189 28.1975C15.5889 28.1037 15.579 28.0046 15.5898 27.9068L16.0315 23.9353C15.3143 23.4136 14.8856 22.5884 14.8856 21.6832C14.8856 20.1387 16.1415 18.8827 17.686 18.8827C19.2305 18.8827 20.4864 20.1387 20.4864 21.6832C20.4864 22.5884 20.0578 23.4136 19.3406 23.9353L19.7822 27.9068ZM23.2867 13.282H12.0852V10.4816C12.0852 7.39336 14.5978 4.88083 17.686 4.88083C20.7742 4.88083 23.2867 7.39336 23.2867 10.4816V13.282Z" fill="#717374"/>
</g>
<defs>
<clipPath id="clip0_652_75">
<rect width="33.6047" height="33.6047" fill="white" transform="translate(0.883545 0.680244)"/>
</clipPath>
</defs>
</svg>
