<svg width="35" height="34" viewBox="0 0 35 34" fill="none" xmlns="http://www.w3.org/2000/svg">
<g clip-path="url(#clip0_652_168)">
<path d="M29.5876 12.846H27.4873V10.0456C27.4873 4.64109 23.0905 0.244263 17.686 0.244263C12.2814 0.244263 7.88464 4.64109 7.88464 10.0456V12.846H5.78435C5.69239 12.8459 5.60132 12.864 5.51635 12.8992C5.43138 12.9343 5.35418 12.9859 5.28915 13.0509C5.22413 13.116 5.17256 13.1932 5.1374 13.2781C5.10224 13.3631 5.08417 13.4542 5.08423 13.5461V31.0486C5.08423 32.593 6.34014 33.8489 7.88464 33.8489H27.4874C29.0318 33.8489 30.2877 32.593 30.2877 31.0485V13.5461C30.2878 13.4542 30.2697 13.3631 30.2345 13.2781C30.1994 13.1932 30.1478 13.116 30.0828 13.0509C30.0178 12.9859 29.9406 12.9343 29.8556 12.8992C29.7706 12.864 29.6796 12.8459 29.5876 12.846ZM19.7822 27.4708C19.793 27.5687 19.7831 27.6677 19.7531 27.7615C19.723 27.8552 19.6736 27.9416 19.6079 28.015C19.5422 28.0883 19.4618 28.147 19.3719 28.1872C19.282 28.2274 19.1847 28.2481 19.0862 28.2482H16.2858C16.1873 28.2481 16.09 28.2274 16.0001 28.1872C15.9102 28.147 15.8298 28.0883 15.7641 28.015C15.6984 27.9416 15.649 27.8552 15.6189 27.7615C15.5889 27.6677 15.579 27.5687 15.5898 27.4708L16.0315 23.4993C15.3143 22.9776 14.8856 22.1524 14.8856 21.2472C14.8856 19.7027 16.1415 18.4468 17.686 18.4468C19.2305 18.4468 20.4864 19.7027 20.4864 21.2472C20.4864 22.1524 20.0578 22.9776 19.3406 23.4993L19.7822 27.4708ZM23.2867 12.846H12.0852V10.0456C12.0852 6.95738 14.5978 4.44484 17.686 4.44484C20.7742 4.44484 23.2867 6.95738 23.2867 10.0456V12.846Z" fill="#717374"/>
</g>
<defs>
<clipPath id="clip0_652_168">
<rect width="33.6047" height="33.6047" fill="white" transform="translate(0.883545 0.244263)"/>
</clipPath>
</defs>
</svg>
