<svg width="77" height="72" viewBox="0 0 77 72" fill="none" xmlns="http://www.w3.org/2000/svg">
<rect width="76.5" height="71.9558" fill="#ED2024"/>
<path fill-rule="evenodd" clip-rule="evenodd" d="M49.4072 16.9307H59.8596V25.4686C59.8596 28.4295 57.989 31.0507 55.166 32.5834C57.9892 34.1164 59.8596 36.7374 59.8596 39.6983V48.2362H56.3755V39.6983C56.3755 36.5677 53.2398 34.0063 49.4072 34.0063H42.4389V46.0478C40.3037 44.4818 38.9548 42.2125 38.9548 39.6983V25.4686C38.9548 20.7727 43.6585 16.9307 49.4072 16.9307ZM26.7605 16.9307H16.3081V25.4686C16.3081 30.1644 21.0118 34.0064 26.7605 34.0064H33.7288V39.6985C33.7288 42.8291 30.5931 45.3904 26.7605 45.3904H19.7922V39.6985C19.7922 38.2755 20.4401 36.9702 21.5068 35.9696C20.4085 35.6005 19.3794 35.1202 18.4419 34.5449C17.1047 35.9795 16.3081 37.7665 16.3081 39.6983V48.2362H26.7605C32.5092 48.2362 37.2129 44.3942 37.2129 39.6983V31.1604H26.7605C22.9279 31.1604 19.7922 28.5992 19.7922 25.4686V19.7765H26.7605C30.5931 19.7765 33.7288 22.3379 33.7288 25.4684V28.3144H37.2129V25.4684C37.2129 20.7727 32.5092 16.9307 26.7605 16.9307ZM49.4072 19.7765H56.3755V25.4684C56.3755 28.599 53.2398 31.1603 49.4072 31.1603H42.4389V25.4684C42.4389 22.3378 45.5746 19.7765 49.4072 19.7765Z" fill="white"/>
<path d="M30.5379 50.684C30.6634 50.684 30.7652 50.6488 30.8435 50.5784C30.9218 50.5082 30.961 50.4127 30.961 50.292C30.961 50.0358 30.82 49.9077 30.5379 49.9077C30.2558 49.9077 30.1069 50.0358 30.1069 50.292C30.1069 50.5482 30.2505 50.6839 30.5379 50.6839V50.684Z" fill="white"/>
<path d="M31.5637 50.292C31.5637 50.5534 31.7074 50.6839 31.9947 50.6839C32.12 50.6839 32.2231 50.6475 32.3043 50.5746C32.3851 50.5018 32.4257 50.4076 32.4257 50.292C32.4257 50.1765 32.3851 50.0836 32.3043 50.0132C32.2232 49.9429 32.12 49.9077 31.9947 49.9077C31.7073 49.9077 31.5637 50.0358 31.5637 50.292Z" fill="white"/>
<path d="M31.2674 49.7186C31.3929 49.7186 31.4959 49.6822 31.577 49.6092C31.658 49.5366 31.6985 49.4424 31.6985 49.3267C31.6985 49.211 31.658 49.1183 31.577 49.0479C31.4959 48.9776 31.3929 48.9424 31.2674 48.9424C30.9801 48.9424 30.8364 49.0705 30.8364 49.3267C30.8364 49.5829 30.9801 49.7186 31.2674 49.7186Z" fill="white"/>
<path d="M35.6458 52.1907C35.5882 52.2863 35.5596 52.5751 35.5596 53.0573H33.1542V51.52L32.5429 51.814C32.4226 51.8742 32.3628 51.9924 32.3628 52.1681V53.0573H31.7829V51.7987C31.3598 51.9998 31.1352 52.1103 31.109 52.1302C31.0201 52.2006 30.9758 52.3262 30.9758 52.507L30.9836 52.7407V53.0573H30.3959V52.1606C30.1608 52.2711 29.9283 52.3842 29.6985 52.4998C29.6305 52.5551 29.5968 52.7409 29.5968 53.0574H28.2333C28.155 52.9369 28.1078 52.8665 28.0923 52.8464C28.0295 52.7711 27.8886 52.6631 27.6692 52.5224C27.4706 52.3867 27.348 52.2813 27.3009 52.2058C27.2591 52.1356 27.2094 52.0427 27.152 51.927L27.0031 52.1981C26.9717 52.2585 26.862 52.3515 26.674 52.477C26.4285 52.6478 26.2197 52.8413 26.0472 53.0573C25.5562 53.0674 25.2533 53.09 25.1383 53.1252C24.8457 53.2206 24.6995 53.4518 24.6995 53.8184V55.1749C24.6995 55.2452 24.7373 55.3181 24.813 55.3935C24.8887 55.4688 24.9632 55.5064 25.0364 55.5064H25.6398V53.9616H26.0472C26.2457 54.4338 26.6087 54.67 27.1364 54.67C27.3819 54.67 27.6052 54.606 27.8064 54.4779C28.0075 54.3498 28.1524 54.1776 28.2412 53.9617H35.9279C36.027 53.9617 36.1237 53.9203 36.2178 53.8373C36.3119 53.7545 36.3589 53.6678 36.3589 53.5773V51.6481C35.9357 51.9194 35.6979 52.1003 35.6458 52.1907ZM27.1364 53.9014C26.8647 53.9014 26.729 53.7708 26.729 53.5095C26.729 53.2483 26.8647 53.1252 27.1364 53.1252C27.4081 53.1252 27.5361 53.2533 27.5361 53.5095C27.5361 53.7657 27.4029 53.9014 27.1364 53.9014Z" fill="white"/>
<path d="M35.8437 54.6943C35.5773 54.6943 35.4441 54.8224 35.4441 55.0787C35.4441 55.3349 35.5773 55.463 35.8437 55.463C36.11 55.463 36.2434 55.3349 36.2434 55.0787C36.2434 54.8224 36.1102 54.6943 35.8437 54.6943Z" fill="white"/>
<path d="M34.4792 54.6943C34.2128 54.6943 34.0796 54.8224 34.0796 55.0787C34.0796 55.3349 34.2128 55.463 34.4792 55.463C34.7455 55.463 34.8789 55.3349 34.8789 55.0787C34.8789 54.8224 34.7457 54.6943 34.4792 54.6943Z" fill="white"/>
<path d="M40.936 52.2073C40.8785 52.2977 40.8498 52.5816 40.8498 53.0589H38.7577V52.1471C38.3398 52.3481 38.1152 52.4611 38.0838 52.4863C37.9113 52.6169 37.8253 52.8178 37.8253 53.0891V54.4004H36.791C36.8171 54.6566 36.9294 54.87 37.1279 55.0409C37.3264 55.2117 37.5589 55.2971 37.8253 55.2971C38.0916 55.2971 38.3137 55.2116 38.4912 55.0409C38.6688 54.87 38.7577 54.6566 38.7577 54.4004V53.9634H41.2102C41.3095 53.9634 41.4073 53.9233 41.5041 53.8428C41.6007 53.7625 41.6491 53.6746 41.6491 53.5791V51.6499C41.2102 51.9614 40.9726 52.1472 40.936 52.2076V52.2073Z" fill="white"/>
<path d="M40.7635 54.7314C40.497 54.7314 40.3638 54.8597 40.3638 55.1158C40.3638 55.3718 40.497 55.5076 40.7635 55.5076C41.03 55.5076 41.1709 55.377 41.1709 55.1158C41.1709 54.8545 41.035 54.7314 40.7635 54.7314Z" fill="white"/>
<path d="M42.84 49.7046V53.9623H43.647V48.8228C43.4693 48.9384 43.2892 49.0565 43.1064 49.177C42.9286 49.3228 42.8398 49.4985 42.8398 49.7046H42.84Z" fill="white"/>
<path d="M45.7154 51.5363C45.4803 51.5615 45.2923 51.6319 45.1513 51.7474C44.7282 52.099 44.5166 52.5362 44.5166 53.0587V53.963H46.7027C46.8229 53.963 46.917 53.8902 46.9848 53.7445C47.037 53.634 47.0632 53.5134 47.0632 53.3828V51.0918C46.849 51.2828 46.6112 51.4084 46.3501 51.4686L45.7154 51.5365V51.5363ZM46.2562 53.0587H45.3237C45.3184 53.0285 45.316 52.9983 45.316 52.9683C45.316 52.7925 45.3864 52.6368 45.5274 52.5011C45.6685 52.3655 45.8331 52.2976 46.0211 52.2976C46.0943 52.2976 46.1725 52.3101 46.2562 52.3351V53.0587Z" fill="white"/>
<path d="M48.2543 49.7046V53.9623H49.0613V48.8228C48.8836 48.9384 48.7035 49.0565 48.5207 49.177C48.3429 49.3228 48.2542 49.4985 48.2542 49.7046H48.2543Z" fill="white"/>
<path d="M50.7928 52.485C50.6203 52.6157 50.5342 52.8166 50.5342 53.0879V54.3991H49.5C49.5261 54.6654 49.6384 54.8763 49.8369 55.0322C50.0249 55.183 50.2573 55.2583 50.5342 55.2583C50.8111 55.2583 51.0291 55.1803 51.2043 55.0246C51.3792 54.8688 51.4667 54.6602 51.4667 54.3991V52.146C51.0488 52.347 50.8242 52.46 50.7928 52.4852V52.485Z" fill="white"/>
</svg>
