<svg width="1920" height="132" viewBox="0 0 1920 132" fill="none" xmlns="http://www.w3.org/2000/svg">
<rect x="98" y="30" width="76.5" height="71.9558" fill="#ED2024"/>
<path fill-rule="evenodd" clip-rule="evenodd" d="M147.407 46.9307H157.86V55.4686C157.86 58.4295 155.989 61.0507 153.166 62.5834C155.989 64.1164 157.86 66.7374 157.86 69.6983V78.2362H154.376V69.6983C154.376 66.5677 151.24 64.0063 147.407 64.0063H140.439V76.0478C138.304 74.4818 136.955 72.2125 136.955 69.6983V55.4686C136.955 50.7727 141.658 46.9307 147.407 46.9307ZM124.76 46.9307H114.308V55.4686C114.308 60.1644 119.012 64.0064 124.76 64.0064H131.729V69.6985C131.729 72.8291 128.593 75.3904 124.76 75.3904H117.792V69.6985C117.792 68.2755 118.44 66.9702 119.507 65.9696C118.408 65.6005 117.379 65.1202 116.442 64.5449C115.105 65.9795 114.308 67.7665 114.308 69.6983V78.2362H124.76C130.509 78.2362 135.213 74.3942 135.213 69.6983V61.1604H124.76C120.928 61.1604 117.792 58.5992 117.792 55.4686V49.7765H124.76C128.593 49.7765 131.729 52.3379 131.729 55.4684V58.3144H135.213V55.4684C135.213 50.7727 130.509 46.9307 124.76 46.9307ZM147.407 49.7765H154.376V55.4684C154.376 58.599 151.24 61.1603 147.407 61.1603H140.439V55.4684C140.439 52.3378 143.575 49.7765 147.407 49.7765Z" fill="white"/>
<path d="M128.538 80.684C128.663 80.684 128.765 80.6488 128.844 80.5784C128.922 80.5082 128.961 80.4127 128.961 80.292C128.961 80.0358 128.82 79.9077 128.538 79.9077C128.256 79.9077 128.107 80.0358 128.107 80.292C128.107 80.5482 128.25 80.6839 128.538 80.6839V80.684Z" fill="white"/>
<path d="M129.564 80.292C129.564 80.5534 129.707 80.6839 129.995 80.6839C130.12 80.6839 130.223 80.6475 130.304 80.5746C130.385 80.5018 130.426 80.4076 130.426 80.292C130.426 80.1765 130.385 80.0836 130.304 80.0132C130.223 79.9429 130.12 79.9077 129.995 79.9077C129.707 79.9077 129.564 80.0358 129.564 80.292Z" fill="white"/>
<path d="M129.267 79.7186C129.393 79.7186 129.496 79.6822 129.577 79.6092C129.658 79.5366 129.699 79.4424 129.699 79.3267C129.699 79.211 129.658 79.1183 129.577 79.0479C129.496 78.9776 129.393 78.9424 129.267 78.9424C128.98 78.9424 128.836 79.0705 128.836 79.3267C128.836 79.5829 128.98 79.7186 129.267 79.7186Z" fill="white"/>
<path d="M133.646 82.1907C133.588 82.2863 133.56 82.5751 133.56 83.0573H131.154V81.52L130.543 81.814C130.423 81.8742 130.363 81.9924 130.363 82.1681V83.0573H129.783V81.7987C129.36 81.9998 129.135 82.1103 129.109 82.1302C129.02 82.2006 128.976 82.3262 128.976 82.507L128.984 82.7407V83.0573H128.396V82.1606C128.161 82.2711 127.928 82.3842 127.699 82.4998C127.631 82.5551 127.597 82.7409 127.597 83.0574H126.233C126.155 82.9369 126.108 82.8665 126.092 82.8464C126.029 82.7711 125.889 82.6631 125.669 82.5224C125.471 82.3867 125.348 82.2813 125.301 82.2058C125.259 82.1356 125.209 82.0427 125.152 81.927L125.003 82.1981C124.972 82.2585 124.862 82.3515 124.674 82.477C124.429 82.6478 124.22 82.8413 124.047 83.0573C123.556 83.0674 123.253 83.09 123.138 83.1252C122.846 83.2206 122.699 83.4518 122.699 83.8184V85.1749C122.699 85.2452 122.737 85.3181 122.813 85.3935C122.889 85.4688 122.963 85.5064 123.036 85.5064H123.64V83.9616H124.047C124.246 84.4338 124.609 84.67 125.136 84.67C125.382 84.67 125.605 84.606 125.806 84.4779C126.007 84.3498 126.152 84.1776 126.241 83.9617H133.928C134.027 83.9617 134.124 83.9203 134.218 83.8373C134.312 83.7545 134.359 83.6678 134.359 83.5773V81.6481C133.936 81.9194 133.698 82.1003 133.646 82.1907ZM125.136 83.9014C124.865 83.9014 124.729 83.7708 124.729 83.5095C124.729 83.2483 124.865 83.1252 125.136 83.1252C125.408 83.1252 125.536 83.2533 125.536 83.5095C125.536 83.7657 125.403 83.9014 125.136 83.9014Z" fill="white"/>
<path d="M133.844 84.6943C133.577 84.6943 133.444 84.8224 133.444 85.0787C133.444 85.3349 133.577 85.463 133.844 85.463C134.11 85.463 134.243 85.3349 134.243 85.0787C134.243 84.8224 134.11 84.6943 133.844 84.6943Z" fill="white"/>
<path d="M132.479 84.6943C132.213 84.6943 132.08 84.8224 132.08 85.0787C132.08 85.3349 132.213 85.463 132.479 85.463C132.746 85.463 132.879 85.3349 132.879 85.0787C132.879 84.8224 132.746 84.6943 132.479 84.6943Z" fill="white"/>
<path d="M138.936 82.2073C138.879 82.2977 138.85 82.5816 138.85 83.0589H136.758V82.1471C136.34 82.3481 136.115 82.4611 136.084 82.4863C135.911 82.6169 135.825 82.8178 135.825 83.0891V84.4004H134.791C134.817 84.6566 134.929 84.87 135.128 85.0409C135.326 85.2117 135.559 85.2971 135.825 85.2971C136.092 85.2971 136.314 85.2116 136.491 85.0409C136.669 84.87 136.758 84.6566 136.758 84.4004V83.9634H139.21C139.309 83.9634 139.407 83.9233 139.504 83.8428C139.601 83.7625 139.649 83.6746 139.649 83.5791V81.6499C139.21 81.9614 138.973 82.1472 138.936 82.2076V82.2073Z" fill="white"/>
<path d="M138.763 84.7314C138.497 84.7314 138.364 84.8597 138.364 85.1158C138.364 85.3718 138.497 85.5076 138.763 85.5076C139.03 85.5076 139.171 85.377 139.171 85.1158C139.171 84.8545 139.035 84.7314 138.763 84.7314Z" fill="white"/>
<path d="M140.84 79.7046V83.9623H141.647V78.8228C141.469 78.9384 141.289 79.0565 141.106 79.177C140.929 79.3228 140.84 79.4985 140.84 79.7046H140.84Z" fill="white"/>
<path d="M143.715 81.5363C143.48 81.5615 143.292 81.6319 143.151 81.7474C142.728 82.099 142.517 82.5362 142.517 83.0587V83.963H144.703C144.823 83.963 144.917 83.8902 144.985 83.7445C145.037 83.634 145.063 83.5134 145.063 83.3828V81.0918C144.849 81.2828 144.611 81.4084 144.35 81.4686L143.715 81.5365V81.5363ZM144.256 83.0587H143.324C143.318 83.0285 143.316 82.9983 143.316 82.9683C143.316 82.7925 143.386 82.6368 143.527 82.5011C143.668 82.3655 143.833 82.2976 144.021 82.2976C144.094 82.2976 144.172 82.3101 144.256 82.3351V83.0587Z" fill="white"/>
<path d="M146.254 79.7046V83.9623H147.061V78.8228C146.884 78.9384 146.704 79.0565 146.521 79.177C146.343 79.3228 146.254 79.4985 146.254 79.7046H146.254Z" fill="white"/>
<path d="M148.793 82.485C148.62 82.6157 148.534 82.8166 148.534 83.0879V84.3991H147.5C147.526 84.6654 147.638 84.8763 147.837 85.0322C148.025 85.183 148.257 85.2583 148.534 85.2583C148.811 85.2583 149.029 85.1803 149.204 85.0246C149.379 84.8688 149.467 84.6602 149.467 84.3991V82.146C149.049 82.347 148.824 82.46 148.793 82.4852V82.485Z" fill="white"/>
<rect x="567" y="26" width="786" height="79" rx="14" fill="#0F0F0F"/>
<rect x="567" y="26" width="786" height="79" rx="14" stroke="#1F1F1F" stroke-width="4"/>
<rect x="579.5" y="38.5" width="97" height="54" rx="7.5" fill="#1A1A1A"/>
<rect x="579.5" y="38.5" width="97" height="54" rx="7.5" stroke="#1A1A1A"/>
<path d="M604.26 72V59.04H605.862V64.755H612.684V59.04H614.286V72H612.684V66.276H605.862V72H604.26ZM620.951 72.27C619.985 72.27 619.151 72.051 618.449 71.613C617.753 71.175 617.216 70.569 616.838 69.795C616.46 69.021 616.271 68.133 616.271 67.131C616.271 66.111 616.463 65.217 616.847 64.449C617.231 63.681 617.774 63.084 618.476 62.658C619.178 62.226 620.003 62.01 620.951 62.01C621.923 62.01 622.76 62.229 623.462 62.667C624.164 63.099 624.701 63.702 625.073 64.476C625.451 65.244 625.64 66.129 625.64 67.131C625.64 68.145 625.451 69.039 625.073 69.813C624.695 70.581 624.155 71.184 623.453 71.622C622.751 72.054 621.917 72.27 620.951 72.27ZM620.951 70.749C621.959 70.749 622.709 70.413 623.201 69.741C623.693 69.069 623.939 68.199 623.939 67.131C623.939 66.033 623.69 65.16 623.192 64.512C622.694 63.858 621.947 63.531 620.951 63.531C620.273 63.531 619.715 63.684 619.277 63.99C618.839 64.296 618.512 64.719 618.296 65.259C618.08 65.799 617.972 66.423 617.972 67.131C617.972 68.223 618.224 69.099 618.728 69.759C619.232 70.419 619.973 70.749 620.951 70.749ZM639.24 72L639.249 65.781C639.249 65.055 639.054 64.488 638.664 64.08C638.28 63.666 637.779 63.459 637.161 63.459C636.801 63.459 636.459 63.543 636.135 63.711C635.811 63.873 635.547 64.131 635.343 64.485C635.139 64.833 635.037 65.28 635.037 65.826L634.191 65.484C634.179 64.794 634.32 64.191 634.614 63.675C634.914 63.153 635.322 62.748 635.838 62.46C636.354 62.172 636.936 62.028 637.584 62.028C638.598 62.028 639.396 62.337 639.978 62.955C640.56 63.567 640.851 64.392 640.851 65.43L640.842 72H639.24ZM627.612 72V62.28H629.043V64.881H629.223V72H627.612ZM633.435 72L633.444 65.844C633.444 65.1 633.252 64.518 632.868 64.098C632.484 63.672 631.974 63.459 631.338 63.459C630.708 63.459 630.198 63.675 629.808 64.107C629.418 64.539 629.223 65.112 629.223 65.826L628.377 65.322C628.377 64.692 628.527 64.128 628.827 63.63C629.127 63.132 629.535 62.742 630.051 62.46C630.567 62.172 631.152 62.028 631.806 62.028C632.46 62.028 633.03 62.166 633.516 62.442C634.002 62.718 634.377 63.114 634.641 63.63C634.905 64.14 635.037 64.749 635.037 65.457L635.028 72H633.435ZM647.32 72.27C646.366 72.27 645.532 72.06 644.818 71.64C644.11 71.214 643.558 70.623 643.162 69.867C642.766 69.105 642.568 68.217 642.568 67.203C642.568 66.141 642.763 65.223 643.153 64.449C643.543 63.669 644.086 63.069 644.782 62.649C645.484 62.223 646.306 62.01 647.248 62.01C648.226 62.01 649.057 62.235 649.741 62.685C650.431 63.135 650.947 63.777 651.289 64.611C651.637 65.445 651.787 66.438 651.739 67.59H650.119V67.014C650.101 65.82 649.858 64.929 649.39 64.341C648.922 63.747 648.226 63.45 647.302 63.45C646.312 63.45 645.559 63.768 645.043 64.404C644.527 65.04 644.269 65.952 644.269 67.14C644.269 68.286 644.527 69.174 645.043 69.804C645.559 70.434 646.294 70.749 647.248 70.749C647.89 70.749 648.448 70.602 648.922 70.308C649.396 70.014 649.768 69.591 650.038 69.039L651.577 69.57C651.199 70.428 650.629 71.094 649.867 71.568C649.111 72.036 648.262 72.27 647.32 72.27ZM643.729 67.59V66.303H650.911V67.59H643.729Z" fill="white"/>
<rect x="707.5" y="38.5" width="135" height="54" rx="7.5" fill="#1A1A1A"/>
<rect x="707.5" y="38.5" width="135" height="54" rx="7.5" stroke="#1A1A1A"/>
<path d="M735.599 72V60.561H731.18V59.04H741.62V60.561H737.201V72H735.599ZM746.221 72L741.883 59.04H743.548L747.319 70.299L751.126 59.04H752.791L748.453 72H746.221ZM762.347 72.27C761.429 72.27 760.601 72.114 759.863 71.802C759.131 71.49 758.525 71.046 758.045 70.47C757.571 69.888 757.262 69.201 757.118 68.409L758.774 68.148C758.984 68.964 759.419 69.603 760.079 70.065C760.745 70.521 761.528 70.749 762.428 70.749C763.01 70.749 763.535 70.659 764.003 70.479C764.477 70.293 764.852 70.029 765.128 69.687C765.404 69.345 765.542 68.94 765.542 68.472C765.542 68.184 765.491 67.938 765.389 67.734C765.293 67.524 765.158 67.347 764.984 67.203C764.816 67.053 764.624 66.927 764.408 66.825C764.192 66.723 763.967 66.639 763.733 66.573L760.43 65.592C760.07 65.484 759.722 65.349 759.386 65.187C759.05 65.019 758.75 64.812 758.486 64.566C758.222 64.314 758.012 64.014 757.856 63.666C757.7 63.312 757.622 62.895 757.622 62.415C757.622 61.647 757.82 60.993 758.216 60.453C758.618 59.907 759.161 59.49 759.845 59.202C760.529 58.914 761.3 58.773 762.158 58.779C763.028 58.785 763.805 58.941 764.489 59.247C765.179 59.547 765.749 59.979 766.199 60.543C766.655 61.107 766.961 61.782 767.117 62.568L765.416 62.865C765.326 62.337 765.125 61.884 764.813 61.506C764.507 61.122 764.123 60.828 763.661 60.624C763.199 60.414 762.692 60.306 762.14 60.3C761.612 60.294 761.135 60.378 760.709 60.552C760.283 60.726 759.944 60.969 759.692 61.281C759.44 61.587 759.314 61.941 759.314 62.343C759.314 62.739 759.428 63.06 759.656 63.306C759.884 63.546 760.163 63.738 760.493 63.882C760.829 64.02 761.156 64.134 761.474 64.224L763.94 64.935C764.222 65.013 764.546 65.121 764.912 65.259C765.284 65.397 765.644 65.592 765.992 65.844C766.34 66.09 766.628 66.42 766.856 66.834C767.084 67.242 767.198 67.758 767.198 68.382C767.198 69.006 767.072 69.561 766.82 70.047C766.574 70.533 766.229 70.941 765.785 71.271C765.341 71.595 764.825 71.841 764.237 72.009C763.649 72.183 763.019 72.27 762.347 72.27ZM774.513 72C773.937 72.114 773.367 72.159 772.803 72.135C772.245 72.117 771.747 72.006 771.309 71.802C770.871 71.592 770.538 71.268 770.31 70.83C770.118 70.446 770.013 70.059 769.995 69.669C769.983 69.273 769.977 68.826 769.977 68.328V59.58H771.579V68.256C771.579 68.652 771.582 68.991 771.588 69.273C771.6 69.555 771.663 69.798 771.777 70.002C771.993 70.386 772.335 70.611 772.803 70.677C773.277 70.743 773.847 70.725 774.513 70.623V72ZM768.006 63.603V62.28H774.513V63.603H768.006ZM779.25 72.27C778.524 72.27 777.915 72.138 777.423 71.874C776.937 71.604 776.568 71.25 776.316 70.812C776.07 70.374 775.947 69.894 775.947 69.372C775.947 68.862 776.043 68.421 776.235 68.049C776.433 67.671 776.709 67.359 777.063 67.113C777.417 66.861 777.84 66.663 778.332 66.519C778.794 66.393 779.31 66.285 779.88 66.195C780.456 66.099 781.038 66.012 781.626 65.934C782.214 65.856 782.763 65.781 783.273 65.709L782.697 66.042C782.715 65.178 782.541 64.539 782.175 64.125C781.815 63.711 781.191 63.504 780.303 63.504C779.715 63.504 779.199 63.639 778.755 63.909C778.317 64.173 778.008 64.605 777.828 65.205L776.307 64.746C776.541 63.894 776.994 63.225 777.666 62.739C778.338 62.253 779.223 62.01 780.321 62.01C781.203 62.01 781.959 62.169 782.589 62.487C783.225 62.799 783.681 63.273 783.957 63.909C784.095 64.209 784.182 64.536 784.218 64.89C784.254 65.238 784.272 65.604 784.272 65.988V72H782.85V69.669L783.183 69.885C782.817 70.671 782.304 71.265 781.644 71.667C780.99 72.069 780.192 72.27 779.25 72.27ZM779.493 70.929C780.069 70.929 780.567 70.827 780.987 70.623C781.413 70.413 781.755 70.14 782.013 69.804C782.271 69.462 782.439 69.09 782.517 68.688C782.607 68.388 782.655 68.055 782.661 67.689C782.673 67.317 782.679 67.032 782.679 66.834L783.237 67.077C782.715 67.149 782.202 67.218 781.698 67.284C781.194 67.35 780.717 67.422 780.267 67.5C779.817 67.572 779.412 67.659 779.052 67.761C778.788 67.845 778.539 67.953 778.305 68.085C778.077 68.217 777.891 68.388 777.747 68.598C777.609 68.802 777.54 69.057 777.54 69.363C777.54 69.627 777.606 69.879 777.738 70.119C777.876 70.359 778.086 70.554 778.368 70.704C778.656 70.854 779.031 70.929 779.493 70.929ZM792.039 72C791.463 72.114 790.893 72.159 790.329 72.135C789.771 72.117 789.273 72.006 788.835 71.802C788.397 71.592 788.064 71.268 787.836 70.83C787.644 70.446 787.539 70.059 787.521 69.669C787.509 69.273 787.503 68.826 787.503 68.328V59.58H789.105V68.256C789.105 68.652 789.108 68.991 789.114 69.273C789.126 69.555 789.189 69.798 789.303 70.002C789.519 70.386 789.861 70.611 790.329 70.677C790.803 70.743 791.373 70.725 792.039 70.623V72ZM785.532 63.603V62.28H792.039V63.603H785.532ZM794.192 60.561V58.905H795.794V60.561H794.192ZM794.192 72V62.28H795.794V72H794.192ZM802.634 72.27C801.668 72.27 800.834 72.051 800.132 71.613C799.436 71.175 798.899 70.569 798.521 69.795C798.143 69.021 797.954 68.133 797.954 67.131C797.954 66.111 798.146 65.217 798.53 64.449C798.914 63.681 799.457 63.084 800.159 62.658C800.861 62.226 801.686 62.01 802.634 62.01C803.606 62.01 804.443 62.229 805.145 62.667C805.847 63.099 806.384 63.702 806.756 64.476C807.134 65.244 807.323 66.129 807.323 67.131C807.323 68.145 807.134 69.039 806.756 69.813C806.378 70.581 805.838 71.184 805.136 71.622C804.434 72.054 803.6 72.27 802.634 72.27ZM802.634 70.749C803.642 70.749 804.392 70.413 804.884 69.741C805.376 69.069 805.622 68.199 805.622 67.131C805.622 66.033 805.373 65.16 804.875 64.512C804.377 63.858 803.63 63.531 802.634 63.531C801.956 63.531 801.398 63.684 800.96 63.99C800.522 64.296 800.195 64.719 799.979 65.259C799.763 65.799 799.655 66.423 799.655 67.131C799.655 68.223 799.907 69.099 800.411 69.759C800.915 70.419 801.656 70.749 802.634 70.749ZM816.226 72V67.131C816.226 66.669 816.184 66.225 816.1 65.799C816.022 65.373 815.881 64.992 815.677 64.656C815.479 64.314 815.209 64.044 814.867 63.846C814.531 63.648 814.105 63.549 813.589 63.549C813.187 63.549 812.821 63.618 812.491 63.756C812.167 63.888 811.888 64.092 811.654 64.368C811.42 64.644 811.237 64.992 811.105 65.412C810.979 65.826 810.916 66.315 810.916 66.879L809.863 66.555C809.863 65.613 810.031 64.806 810.367 64.134C810.709 63.456 811.186 62.937 811.798 62.577C812.416 62.211 813.142 62.028 813.976 62.028C814.606 62.028 815.143 62.127 815.587 62.325C816.031 62.523 816.4 62.787 816.694 63.117C816.988 63.441 817.219 63.807 817.387 64.215C817.555 64.617 817.672 65.028 817.738 65.448C817.81 65.862 817.846 66.255 817.846 66.627V72H816.226ZM809.296 72V62.28H810.736V64.881H810.916V72H809.296Z" fill="white"/>
<path d="M874.44 72V59.04H875.763V70.731H881.919V72H874.44ZM883.633 72V59.04H884.956V72H883.633ZM890.949 72L886.485 59.04H887.862L891.813 70.497L895.791 59.04H897.168L892.704 72H890.949ZM898.518 72V59.04H906.618V60.309H899.841V64.791H905.538V66.06H899.841V70.731H906.618V72H898.518Z" fill="#BFBFBF"/>
<path d="M942.554 72L938.09 59.04H939.467L943.418 70.497L947.396 59.04H948.773L944.309 72H942.554ZM955.019 72.27C953.729 72.27 952.64 71.985 951.752 71.415C950.864 70.839 950.192 70.044 949.736 69.03C949.28 68.016 949.052 66.846 949.052 65.52C949.052 64.194 949.28 63.024 949.736 62.01C950.192 60.996 950.864 60.204 951.752 59.634C952.64 59.058 953.729 58.77 955.019 58.77C956.315 58.77 957.404 59.058 958.286 59.634C959.174 60.204 959.846 60.996 960.302 62.01C960.764 63.024 960.995 64.194 960.995 65.52C960.995 66.846 960.764 68.016 960.302 69.03C959.846 70.044 959.174 70.839 958.286 71.415C957.404 71.985 956.315 72.27 955.019 72.27ZM955.019 71.001C956.033 71.001 956.879 70.77 957.557 70.308C958.235 69.846 958.742 69.204 959.078 68.382C959.42 67.554 959.591 66.6 959.591 65.52C959.591 64.44 959.42 63.489 959.078 62.667C958.742 61.845 958.235 61.203 957.557 60.741C956.879 60.279 956.033 60.045 955.019 60.039C954.005 60.039 953.162 60.27 952.49 60.732C951.818 61.194 951.311 61.839 950.969 62.667C950.633 63.489 950.462 64.44 950.456 65.52C950.45 66.6 950.615 67.551 950.951 68.373C951.293 69.189 951.803 69.831 952.481 70.299C953.159 70.761 954.005 70.995 955.019 71.001ZM962.797 72V59.04H966.73C966.868 59.04 967.102 59.043 967.432 59.049C967.768 59.055 968.089 59.079 968.395 59.121C969.379 59.259 970.201 59.625 970.861 60.219C971.521 60.813 972.016 61.569 972.346 62.487C972.676 63.405 972.841 64.416 972.841 65.52C972.841 66.624 972.676 67.635 972.346 68.553C972.016 69.471 971.521 70.227 970.861 70.821C970.201 71.415 969.379 71.781 968.395 71.919C968.095 71.955 967.774 71.979 967.432 71.991C967.09 71.997 966.856 72 966.73 72H962.797ZM964.165 70.731H966.73C966.976 70.731 967.24 70.725 967.522 70.713C967.81 70.695 968.056 70.665 968.26 70.623C969.016 70.491 969.625 70.185 970.087 69.705C970.555 69.225 970.897 68.625 971.113 67.905C971.329 67.179 971.437 66.384 971.437 65.52C971.437 64.65 971.329 63.852 971.113 63.126C970.897 62.4 970.555 61.8 970.087 61.326C969.619 60.852 969.01 60.549 968.26 60.417C968.056 60.375 967.807 60.348 967.513 60.336C967.225 60.318 966.964 60.309 966.73 60.309H964.165V70.731Z" fill="#BFBFBF"/>
<path d="M1005.26 72V59.04H1006.59L1013.73 69.66V59.04H1015.06V72H1013.73L1006.59 61.371V72H1005.26ZM1021.64 72.27C1020.68 72.27 1019.85 72.051 1019.17 71.613C1018.48 71.175 1017.96 70.569 1017.59 69.795C1017.23 69.021 1017.04 68.133 1017.04 67.131C1017.04 66.111 1017.23 65.217 1017.6 64.449C1017.97 63.681 1018.5 63.084 1019.18 62.658C1019.87 62.226 1020.69 62.01 1021.64 62.01C1022.61 62.01 1023.44 62.229 1024.13 62.667C1024.82 63.099 1025.34 63.702 1025.7 64.476C1026.07 65.244 1026.25 66.129 1026.25 67.131C1026.25 68.151 1026.07 69.048 1025.7 69.822C1025.33 70.59 1024.81 71.19 1024.12 71.622C1023.43 72.054 1022.6 72.27 1021.64 72.27ZM1021.64 71.001C1022.72 71.001 1023.53 70.644 1024.05 69.93C1024.58 69.21 1024.85 68.277 1024.85 67.131C1024.85 65.955 1024.58 65.019 1024.04 64.323C1023.52 63.627 1022.72 63.279 1021.64 63.279C1020.92 63.279 1020.32 63.444 1019.84 63.774C1019.37 64.098 1019.02 64.551 1018.79 65.133C1018.56 65.709 1018.45 66.375 1018.45 67.131C1018.45 68.301 1018.72 69.24 1019.26 69.948C1019.8 70.65 1020.59 71.001 1021.64 71.001ZM1033.53 72C1032.98 72.114 1032.44 72.159 1031.91 72.135C1031.38 72.111 1030.9 71.997 1030.48 71.793C1030.07 71.589 1029.76 71.271 1029.54 70.839C1029.37 70.479 1029.27 70.116 1029.25 69.75C1029.24 69.378 1029.23 68.955 1029.23 68.481V59.58H1030.55V68.427C1030.55 68.835 1030.55 69.177 1030.56 69.453C1030.57 69.723 1030.63 69.963 1030.75 70.173C1030.96 70.575 1031.3 70.815 1031.77 70.893C1032.25 70.971 1032.83 70.953 1033.53 70.839V72ZM1027.15 63.414V62.28H1033.53V63.414H1027.15ZM1035.62 60.435V58.95H1036.94V60.435H1035.62ZM1035.62 72V62.28H1036.94V72H1035.62ZM1040.61 72V61.56C1040.61 61.308 1040.62 61.059 1040.64 60.813C1040.67 60.567 1040.73 60.333 1040.81 60.111C1040.9 59.883 1041.03 59.673 1041.21 59.481C1041.41 59.265 1041.62 59.109 1041.86 59.013C1042.09 58.911 1042.33 58.845 1042.59 58.815C1042.84 58.785 1043.1 58.77 1043.34 58.77H1044.58V59.886H1043.43C1042.93 59.886 1042.55 60.009 1042.3 60.255C1042.05 60.501 1041.93 60.888 1041.93 61.416V72H1040.61ZM1038.92 63.414V62.28H1044.58V63.414H1038.92ZM1046.47 60.435V58.95H1047.8V60.435H1046.47ZM1046.47 72V62.28H1047.8V72H1046.47ZM1054.52 72.27C1053.54 72.27 1052.71 72.051 1052.04 71.613C1051.36 71.175 1050.84 70.572 1050.49 69.804C1050.14 69.03 1049.96 68.142 1049.95 67.14C1049.96 66.12 1050.15 65.226 1050.51 64.458C1050.87 63.684 1051.39 63.084 1052.06 62.658C1052.74 62.226 1053.56 62.01 1054.53 62.01C1055.51 62.01 1056.37 62.25 1057.09 62.73C1057.83 63.21 1058.33 63.867 1058.6 64.701L1057.3 65.115C1057.07 64.533 1056.71 64.083 1056.21 63.765C1055.72 63.441 1055.16 63.279 1054.52 63.279C1053.81 63.279 1053.22 63.444 1052.75 63.774C1052.28 64.098 1051.93 64.551 1051.7 65.133C1051.48 65.715 1051.36 66.384 1051.35 67.14C1051.36 68.304 1051.63 69.24 1052.16 69.948C1052.69 70.65 1053.48 71.001 1054.52 71.001C1055.18 71.001 1055.74 70.851 1056.2 70.551C1056.67 70.245 1057.03 69.801 1057.27 69.219L1058.6 69.615C1058.24 70.479 1057.71 71.139 1057.01 71.595C1056.32 72.045 1055.49 72.27 1054.52 72.27ZM1063.18 72.27C1062.45 72.27 1061.84 72.138 1061.34 71.874C1060.85 71.61 1060.48 71.259 1060.23 70.821C1059.99 70.383 1059.86 69.906 1059.86 69.39C1059.86 68.862 1059.97 68.412 1060.18 68.04C1060.39 67.662 1060.68 67.353 1061.05 67.113C1061.42 66.873 1061.85 66.69 1062.34 66.564C1062.83 66.444 1063.37 66.339 1063.97 66.249C1064.57 66.153 1065.15 66.072 1065.72 66.006C1066.3 65.934 1066.8 65.865 1067.23 65.799L1066.77 66.087C1066.78 65.127 1066.6 64.416 1066.21 63.954C1065.82 63.492 1065.14 63.261 1064.17 63.261C1063.51 63.261 1062.94 63.411 1062.48 63.711C1062.03 64.011 1061.7 64.485 1061.52 65.133L1060.23 64.755C1060.45 63.885 1060.9 63.21 1061.57 62.73C1062.24 62.25 1063.12 62.01 1064.19 62.01C1065.08 62.01 1065.83 62.178 1066.45 62.514C1067.07 62.844 1067.52 63.324 1067.77 63.954C1067.89 64.236 1067.97 64.551 1068.01 64.899C1068.04 65.247 1068.06 65.601 1068.06 65.961V72H1066.88V69.561L1067.22 69.705C1066.89 70.539 1066.38 71.175 1065.69 71.613C1064.99 72.051 1064.16 72.27 1063.18 72.27ZM1063.34 71.127C1063.95 71.127 1064.49 71.016 1064.96 70.794C1065.42 70.572 1065.79 70.269 1066.07 69.885C1066.35 69.495 1066.54 69.057 1066.62 68.571C1066.69 68.259 1066.73 67.917 1066.74 67.545C1066.74 67.167 1066.75 66.885 1066.75 66.699L1067.25 66.96C1066.8 67.02 1066.31 67.08 1065.78 67.14C1065.26 67.2 1064.75 67.269 1064.24 67.347C1063.73 67.425 1063.28 67.518 1062.87 67.626C1062.59 67.704 1062.33 67.815 1062.07 67.959C1061.81 68.097 1061.6 68.283 1061.43 68.517C1061.27 68.751 1061.19 69.042 1061.19 69.39C1061.19 69.672 1061.25 69.945 1061.39 70.209C1061.54 70.473 1061.76 70.692 1062.08 70.866C1062.39 71.04 1062.81 71.127 1063.34 71.127ZM1075.7 72C1075.15 72.114 1074.61 72.159 1074.08 72.135C1073.55 72.111 1073.07 71.997 1072.65 71.793C1072.24 71.589 1071.93 71.271 1071.71 70.839C1071.54 70.479 1071.44 70.116 1071.42 69.75C1071.41 69.378 1071.4 68.955 1071.4 68.481V59.58H1072.72V68.427C1072.72 68.835 1072.72 69.177 1072.73 69.453C1072.74 69.723 1072.8 69.963 1072.92 70.173C1073.13 70.575 1073.47 70.815 1073.94 70.893C1074.42 70.971 1075 70.953 1075.7 70.839V72ZM1069.32 63.414V62.28H1075.7V63.414H1069.32ZM1077.79 60.435V58.95H1079.11V60.435H1077.79ZM1077.79 72V62.28H1079.11V72H1077.79ZM1085.87 72.27C1084.91 72.27 1084.08 72.051 1083.4 71.613C1082.71 71.175 1082.19 70.569 1081.82 69.795C1081.46 69.021 1081.27 68.133 1081.27 67.131C1081.27 66.111 1081.46 65.217 1081.83 64.449C1082.2 63.681 1082.73 63.084 1083.41 62.658C1084.1 62.226 1084.92 62.01 1085.87 62.01C1086.84 62.01 1087.67 62.229 1088.36 62.667C1089.05 63.099 1089.57 63.702 1089.93 64.476C1090.3 65.244 1090.48 66.129 1090.48 67.131C1090.48 68.151 1090.3 69.048 1089.93 69.822C1089.56 70.59 1089.04 71.19 1088.35 71.622C1087.66 72.054 1086.83 72.27 1085.87 72.27ZM1085.87 71.001C1086.95 71.001 1087.76 70.644 1088.28 69.93C1088.81 69.21 1089.08 68.277 1089.08 67.131C1089.08 65.955 1088.81 65.019 1088.27 64.323C1087.75 63.627 1086.95 63.279 1085.87 63.279C1085.15 63.279 1084.55 63.444 1084.07 63.774C1083.6 64.098 1083.25 64.551 1083.02 65.133C1082.79 65.709 1082.68 66.375 1082.68 67.131C1082.68 68.301 1082.95 69.24 1083.49 69.948C1084.03 70.65 1084.82 71.001 1085.87 71.001ZM1099.49 72V67.041C1099.49 66.501 1099.43 66.006 1099.33 65.556C1099.23 65.1 1099.07 64.704 1098.84 64.368C1098.62 64.026 1098.32 63.762 1097.96 63.576C1097.61 63.39 1097.18 63.297 1096.67 63.297C1096.2 63.297 1095.79 63.378 1095.43 63.54C1095.07 63.702 1094.77 63.936 1094.53 64.242C1094.29 64.542 1094.1 64.908 1093.98 65.34C1093.85 65.772 1093.79 66.264 1093.79 66.816L1092.85 66.609C1092.85 65.613 1093.03 64.776 1093.37 64.098C1093.72 63.42 1094.2 62.907 1094.81 62.559C1095.43 62.211 1096.13 62.037 1096.92 62.037C1097.5 62.037 1098.01 62.127 1098.44 62.307C1098.88 62.487 1099.25 62.73 1099.55 63.036C1099.85 63.342 1100.1 63.693 1100.29 64.089C1100.47 64.479 1100.61 64.896 1100.69 65.34C1100.78 65.778 1100.82 66.216 1100.82 66.654V72H1099.49ZM1092.46 72V62.28H1093.65V64.674H1093.79V72H1092.46ZM1106.78 72.261C1105.64 72.261 1104.7 72.015 1103.96 71.523C1103.23 71.031 1102.78 70.347 1102.61 69.471L1103.96 69.246C1104.11 69.798 1104.43 70.239 1104.94 70.569C1105.46 70.893 1106.1 71.055 1106.85 71.055C1107.59 71.055 1108.17 70.902 1108.6 70.596C1109.02 70.284 1109.24 69.861 1109.24 69.327C1109.24 69.027 1109.17 68.784 1109.03 68.598C1108.9 68.406 1108.62 68.229 1108.21 68.067C1107.8 67.905 1107.18 67.713 1106.36 67.491C1105.47 67.251 1104.78 67.011 1104.29 66.771C1103.79 66.531 1103.43 66.255 1103.22 65.943C1103.01 65.625 1102.91 65.238 1102.91 64.782C1102.91 64.23 1103.07 63.747 1103.38 63.333C1103.69 62.913 1104.12 62.589 1104.67 62.361C1105.23 62.127 1105.87 62.01 1106.6 62.01C1107.33 62.01 1107.99 62.13 1108.56 62.37C1109.14 62.604 1109.61 62.934 1109.97 63.36C1110.32 63.786 1110.53 64.281 1110.6 64.845L1109.25 65.088C1109.16 64.518 1108.87 64.068 1108.39 63.738C1107.92 63.402 1107.31 63.228 1106.58 63.216C1105.89 63.198 1105.33 63.33 1104.9 63.612C1104.47 63.888 1104.25 64.257 1104.25 64.719C1104.25 64.977 1104.33 65.199 1104.48 65.385C1104.64 65.565 1104.92 65.736 1105.33 65.898C1105.74 66.06 1106.33 66.237 1107.09 66.429C1107.99 66.657 1108.69 66.897 1109.2 67.149C1109.71 67.401 1110.07 67.698 1110.29 68.04C1110.51 68.382 1110.61 68.805 1110.61 69.309C1110.61 70.227 1110.27 70.95 1109.59 71.478C1108.91 72 1107.97 72.261 1106.78 72.261Z" fill="#BFBFBF"/>
<path d="M1147.76 72.27C1146.85 72.27 1146.04 72.12 1145.31 71.82C1144.59 71.514 1144 71.082 1143.52 70.524C1143.05 69.966 1142.75 69.303 1142.6 68.535L1143.95 68.31C1144.17 69.15 1144.63 69.81 1145.32 70.29C1146.02 70.764 1146.85 71.001 1147.81 71.001C1148.45 71.001 1149.02 70.902 1149.52 70.704C1150.03 70.5 1150.42 70.212 1150.71 69.84C1151 69.468 1151.14 69.027 1151.14 68.517C1151.14 68.181 1151.08 67.896 1150.96 67.662C1150.84 67.422 1150.69 67.224 1150.49 67.068C1150.29 66.912 1150.07 66.783 1149.84 66.681C1149.61 66.573 1149.38 66.486 1149.16 66.42L1145.87 65.439C1145.47 65.325 1145.11 65.181 1144.77 65.007C1144.44 64.827 1144.14 64.614 1143.89 64.368C1143.64 64.116 1143.45 63.822 1143.31 63.486C1143.18 63.15 1143.11 62.766 1143.11 62.334C1143.11 61.602 1143.3 60.969 1143.68 60.435C1144.07 59.901 1144.59 59.49 1145.26 59.202C1145.92 58.914 1146.68 58.773 1147.54 58.779C1148.4 58.779 1149.17 58.932 1149.85 59.238C1150.53 59.544 1151.1 59.982 1151.54 60.552C1151.98 61.116 1152.28 61.785 1152.42 62.559L1151.04 62.811C1150.95 62.247 1150.74 61.758 1150.42 61.344C1150.09 60.93 1149.68 60.612 1149.17 60.39C1148.68 60.162 1148.13 60.045 1147.53 60.039C1146.94 60.039 1146.43 60.138 1145.97 60.336C1145.52 60.528 1145.16 60.792 1144.9 61.128C1144.63 61.464 1144.5 61.848 1144.5 62.28C1144.5 62.718 1144.62 63.069 1144.86 63.333C1145.11 63.597 1145.41 63.804 1145.76 63.954C1146.12 64.104 1146.47 64.227 1146.81 64.323L1149.34 65.07C1149.61 65.142 1149.92 65.247 1150.27 65.385C1150.63 65.517 1150.98 65.709 1151.32 65.961C1151.66 66.207 1151.94 66.531 1152.16 66.933C1152.38 67.335 1152.49 67.845 1152.49 68.463C1152.49 69.063 1152.37 69.6 1152.13 70.074C1151.9 70.548 1151.57 70.947 1151.14 71.271C1150.71 71.595 1150.21 71.841 1149.63 72.009C1149.06 72.183 1148.44 72.27 1147.76 72.27ZM1158.46 72.27C1157.52 72.27 1156.69 72.06 1156 71.64C1155.31 71.22 1154.77 70.629 1154.39 69.867C1154 69.105 1153.81 68.211 1153.81 67.185C1153.81 66.123 1154 65.205 1154.38 64.431C1154.76 63.657 1155.29 63.06 1155.97 62.64C1156.66 62.22 1157.47 62.01 1158.41 62.01C1159.37 62.01 1160.19 62.232 1160.87 62.676C1161.55 63.114 1162.06 63.744 1162.41 64.566C1162.75 65.388 1162.91 66.369 1162.88 67.509H1161.53V67.041C1161.51 65.781 1161.24 64.83 1160.71 64.188C1160.2 63.546 1159.44 63.225 1158.45 63.225C1157.4 63.225 1156.6 63.564 1156.04 64.242C1155.49 64.92 1155.22 65.886 1155.22 67.14C1155.22 68.364 1155.49 69.315 1156.04 69.993C1156.6 70.665 1157.39 71.001 1158.41 71.001C1159.11 71.001 1159.71 70.842 1160.23 70.524C1160.75 70.2 1161.16 69.735 1161.46 69.129L1162.69 69.606C1162.31 70.452 1161.74 71.109 1160.99 71.577C1160.25 72.039 1159.41 72.27 1158.46 72.27ZM1154.75 67.509V66.402H1162.17V67.509H1154.75ZM1170.17 72C1169.63 72.114 1169.09 72.159 1168.55 72.135C1168.03 72.111 1167.55 71.997 1167.13 71.793C1166.72 71.589 1166.4 71.271 1166.19 70.839C1166.01 70.479 1165.92 70.116 1165.9 69.75C1165.89 69.378 1165.88 68.955 1165.88 68.481V59.58H1167.19V68.427C1167.19 68.835 1167.2 69.177 1167.2 69.453C1167.22 69.723 1167.28 69.963 1167.39 70.173C1167.61 70.575 1167.95 70.815 1168.42 70.893C1168.89 70.971 1169.48 70.953 1170.17 70.839V72ZM1163.8 63.414V62.28H1170.17V63.414H1163.8ZM1176.3 72C1175.76 72.114 1175.22 72.159 1174.68 72.135C1174.15 72.111 1173.68 71.997 1173.26 71.793C1172.85 71.589 1172.53 71.271 1172.32 70.839C1172.14 70.479 1172.05 70.116 1172.03 69.75C1172.02 69.378 1172.01 68.955 1172.01 68.481V59.58H1173.32V68.427C1173.32 68.835 1173.33 69.177 1173.33 69.453C1173.34 69.723 1173.41 69.963 1173.52 70.173C1173.74 70.575 1174.08 70.815 1174.55 70.893C1175.02 70.971 1175.61 70.953 1176.3 70.839V72ZM1169.93 63.414V62.28H1176.3V63.414H1169.93ZM1178.4 60.435V58.95H1179.73V60.435H1178.4ZM1178.4 72V62.28H1179.73V72H1178.4ZM1189.44 72V67.041C1189.44 66.501 1189.39 66.006 1189.29 65.556C1189.19 65.1 1189.02 64.704 1188.8 64.368C1188.57 64.026 1188.28 63.762 1187.92 63.576C1187.57 63.39 1187.14 63.297 1186.63 63.297C1186.16 63.297 1185.75 63.378 1185.39 63.54C1185.03 63.702 1184.73 63.936 1184.49 64.242C1184.25 64.542 1184.06 64.908 1183.94 65.34C1183.81 65.772 1183.75 66.264 1183.75 66.816L1182.81 66.609C1182.81 65.613 1182.99 64.776 1183.33 64.098C1183.68 63.42 1184.16 62.907 1184.77 62.559C1185.39 62.211 1186.09 62.037 1186.88 62.037C1187.46 62.037 1187.97 62.127 1188.4 62.307C1188.84 62.487 1189.21 62.73 1189.51 63.036C1189.81 63.342 1190.06 63.693 1190.25 64.089C1190.43 64.479 1190.57 64.896 1190.65 65.34C1190.73 65.778 1190.78 66.216 1190.78 66.654V72H1189.44ZM1182.42 72V62.28H1183.61V64.674H1183.75V72H1182.42ZM1196.97 76.59C1196.47 76.59 1195.98 76.515 1195.5 76.365C1195.02 76.221 1194.57 75.99 1194.16 75.672C1193.76 75.36 1193.41 74.952 1193.14 74.448L1194.34 73.782C1194.61 74.322 1194.98 74.709 1195.47 74.943C1195.96 75.183 1196.46 75.303 1196.97 75.303C1197.67 75.303 1198.24 75.171 1198.67 74.907C1199.11 74.649 1199.43 74.265 1199.63 73.755C1199.83 73.245 1199.92 72.609 1199.92 71.847V69.255H1200.07V62.28H1201.25V71.865C1201.25 72.141 1201.24 72.405 1201.22 72.657C1201.21 72.915 1201.18 73.167 1201.14 73.413C1201.03 74.139 1200.79 74.736 1200.43 75.204C1200.07 75.672 1199.61 76.02 1199.02 76.248C1198.45 76.476 1197.76 76.59 1196.97 76.59ZM1196.88 72.27C1195.98 72.27 1195.2 72.045 1194.56 71.595C1193.92 71.139 1193.43 70.524 1193.08 69.75C1192.74 68.976 1192.57 68.103 1192.57 67.131C1192.57 66.165 1192.74 65.295 1193.08 64.521C1193.42 63.747 1193.91 63.135 1194.54 62.685C1195.18 62.235 1195.94 62.01 1196.83 62.01C1197.74 62.01 1198.51 62.232 1199.13 62.676C1199.76 63.12 1200.23 63.729 1200.55 64.503C1200.87 65.271 1201.03 66.147 1201.03 67.131C1201.03 68.097 1200.87 68.97 1200.55 69.75C1200.24 70.524 1199.77 71.139 1199.15 71.595C1198.53 72.045 1197.78 72.27 1196.88 72.27ZM1197.02 71.037C1197.71 71.037 1198.28 70.869 1198.73 70.533C1199.18 70.197 1199.51 69.735 1199.74 69.147C1199.96 68.553 1200.07 67.881 1200.07 67.131C1200.07 66.369 1199.96 65.697 1199.74 65.115C1199.51 64.527 1199.18 64.068 1198.73 63.738C1198.28 63.408 1197.72 63.243 1197.04 63.243C1196.35 63.243 1195.77 63.414 1195.32 63.756C1194.86 64.098 1194.52 64.563 1194.3 65.151C1194.08 65.739 1193.98 66.399 1193.98 67.131C1193.98 67.869 1194.09 68.535 1194.31 69.129C1194.54 69.717 1194.88 70.182 1195.33 70.524C1195.78 70.866 1196.34 71.037 1197.02 71.037ZM1207.39 72.261C1206.25 72.261 1205.31 72.015 1204.57 71.523C1203.84 71.031 1203.39 70.347 1203.22 69.471L1204.57 69.246C1204.72 69.798 1205.04 70.239 1205.55 70.569C1206.07 70.893 1206.71 71.055 1207.46 71.055C1208.2 71.055 1208.78 70.902 1209.21 70.596C1209.63 70.284 1209.85 69.861 1209.85 69.327C1209.85 69.027 1209.78 68.784 1209.64 68.598C1209.51 68.406 1209.24 68.229 1208.82 68.067C1208.41 67.905 1207.79 67.713 1206.97 67.491C1206.09 67.251 1205.4 67.011 1204.9 66.771C1204.4 66.531 1204.05 66.255 1203.84 65.943C1203.63 65.625 1203.52 65.238 1203.52 64.782C1203.52 64.23 1203.68 63.747 1203.99 63.333C1204.3 62.913 1204.73 62.589 1205.28 62.361C1205.84 62.127 1206.48 62.01 1207.21 62.01C1207.94 62.01 1208.6 62.13 1209.17 62.37C1209.75 62.604 1210.22 62.934 1210.58 63.36C1210.93 63.786 1211.14 64.281 1211.21 64.845L1209.86 65.088C1209.77 64.518 1209.48 64.068 1209 63.738C1208.53 63.402 1207.92 63.228 1207.19 63.216C1206.5 63.198 1205.94 63.33 1205.51 63.612C1205.08 63.888 1204.86 64.257 1204.86 64.719C1204.86 64.977 1204.94 65.199 1205.1 65.385C1205.25 65.565 1205.53 65.736 1205.94 65.898C1206.36 66.06 1206.94 66.237 1207.71 66.429C1208.6 66.657 1209.3 66.897 1209.81 67.149C1210.32 67.401 1210.68 67.698 1210.9 68.04C1211.12 68.382 1211.22 68.805 1211.22 69.309C1211.22 70.227 1210.88 70.95 1210.2 71.478C1209.52 72 1208.58 72.261 1207.39 72.261Z" fill="#BFBFBF"/>
<path d="M1242.36 72L1246.82 59.04H1248.58L1253.04 72H1251.67L1247.43 59.778H1247.95L1243.74 72H1242.36ZM1244.35 68.859V67.617H1251.04V68.859H1244.35ZM1258.7 72.27C1257.72 72.27 1256.89 72.051 1256.22 71.613C1255.54 71.175 1255.02 70.572 1254.67 69.804C1254.32 69.03 1254.14 68.142 1254.13 67.14C1254.14 66.12 1254.33 65.226 1254.69 64.458C1255.05 63.684 1255.57 63.084 1256.24 62.658C1256.92 62.226 1257.74 62.01 1258.71 62.01C1259.69 62.01 1260.55 62.25 1261.27 62.73C1262.01 63.21 1262.51 63.867 1262.78 64.701L1261.48 65.115C1261.25 64.533 1260.89 64.083 1260.39 63.765C1259.9 63.441 1259.34 63.279 1258.7 63.279C1257.99 63.279 1257.4 63.444 1256.93 63.774C1256.46 64.098 1256.11 64.551 1255.88 65.133C1255.66 65.715 1255.54 66.384 1255.53 67.14C1255.54 68.304 1255.81 69.24 1256.34 69.948C1256.87 70.65 1257.66 71.001 1258.7 71.001C1259.36 71.001 1259.92 70.851 1260.38 70.551C1260.85 70.245 1261.21 69.801 1261.45 69.219L1262.78 69.615C1262.42 70.479 1261.89 71.139 1261.19 71.595C1260.5 72.045 1259.67 72.27 1258.7 72.27ZM1268.4 72.27C1267.43 72.27 1266.6 72.051 1265.92 71.613C1265.24 71.175 1264.73 70.572 1264.37 69.804C1264.02 69.03 1263.84 68.142 1263.83 67.14C1263.84 66.12 1264.03 65.226 1264.39 64.458C1264.75 63.684 1265.27 63.084 1265.95 62.658C1266.62 62.226 1267.45 62.01 1268.41 62.01C1269.4 62.01 1270.25 62.25 1270.98 62.73C1271.71 63.21 1272.21 63.867 1272.48 64.701L1271.18 65.115C1270.96 64.533 1270.59 64.083 1270.1 63.765C1269.6 63.441 1269.04 63.279 1268.4 63.279C1267.69 63.279 1267.1 63.444 1266.63 63.774C1266.16 64.098 1265.81 64.551 1265.59 65.133C1265.36 65.715 1265.24 66.384 1265.24 67.14C1265.25 68.304 1265.52 69.24 1266.05 69.948C1266.57 70.65 1267.36 71.001 1268.4 71.001C1269.06 71.001 1269.62 70.851 1270.09 70.551C1270.55 70.245 1270.91 69.801 1271.15 69.219L1272.48 69.615C1272.12 70.479 1271.59 71.139 1270.9 71.595C1270.2 72.045 1269.37 72.27 1268.4 72.27ZM1278.13 72.27C1277.17 72.27 1276.34 72.051 1275.66 71.613C1274.97 71.175 1274.45 70.569 1274.08 69.795C1273.72 69.021 1273.53 68.133 1273.53 67.131C1273.53 66.111 1273.72 65.217 1274.09 64.449C1274.46 63.681 1274.99 63.084 1275.68 62.658C1276.37 62.226 1277.19 62.01 1278.13 62.01C1279.11 62.01 1279.93 62.229 1280.62 62.667C1281.31 63.099 1281.83 63.702 1282.19 64.476C1282.56 65.244 1282.74 66.129 1282.74 67.131C1282.74 68.151 1282.56 69.048 1282.19 69.822C1281.83 70.59 1281.3 71.19 1280.61 71.622C1279.92 72.054 1279.09 72.27 1278.13 72.27ZM1278.13 71.001C1279.21 71.001 1280.02 70.644 1280.55 69.93C1281.07 69.21 1281.34 68.277 1281.34 67.131C1281.34 65.955 1281.07 65.019 1280.54 64.323C1280.01 63.627 1279.21 63.279 1278.13 63.279C1277.41 63.279 1276.81 63.444 1276.33 63.774C1275.87 64.098 1275.51 64.551 1275.28 65.133C1275.05 65.709 1274.94 66.375 1274.94 67.131C1274.94 68.301 1275.21 69.24 1275.75 69.948C1276.29 70.65 1277.08 71.001 1278.13 71.001ZM1288.44 72.243C1287.86 72.243 1287.35 72.153 1286.91 71.973C1286.48 71.793 1286.11 71.55 1285.81 71.244C1285.51 70.938 1285.26 70.59 1285.08 70.2C1284.89 69.804 1284.76 69.387 1284.67 68.949C1284.59 68.505 1284.55 68.064 1284.55 67.626V62.28H1285.88V67.239C1285.88 67.773 1285.93 68.268 1286.03 68.724C1286.13 69.18 1286.3 69.579 1286.52 69.921C1286.75 70.257 1287.04 70.518 1287.39 70.704C1287.75 70.89 1288.19 70.983 1288.7 70.983C1289.16 70.983 1289.57 70.902 1289.93 70.74C1290.29 70.578 1290.59 70.347 1290.83 70.047C1291.07 69.741 1291.26 69.372 1291.39 68.94C1291.51 68.502 1291.58 68.01 1291.58 67.464L1292.51 67.671C1292.51 68.667 1292.34 69.504 1291.99 70.182C1291.64 70.86 1291.16 71.373 1290.55 71.721C1289.94 72.069 1289.24 72.243 1288.44 72.243ZM1291.71 72V69.606H1291.58V62.28H1292.9V72H1291.71ZM1302.43 72V67.041C1302.43 66.501 1302.38 66.006 1302.28 65.556C1302.18 65.1 1302.01 64.704 1301.79 64.368C1301.56 64.026 1301.27 63.762 1300.91 63.576C1300.56 63.39 1300.13 63.297 1299.62 63.297C1299.15 63.297 1298.74 63.378 1298.38 63.54C1298.02 63.702 1297.72 63.936 1297.48 64.242C1297.24 64.542 1297.05 64.908 1296.93 65.34C1296.8 65.772 1296.74 66.264 1296.74 66.816L1295.8 66.609C1295.8 65.613 1295.98 64.776 1296.32 64.098C1296.67 63.42 1297.15 62.907 1297.76 62.559C1298.38 62.211 1299.08 62.037 1299.87 62.037C1300.45 62.037 1300.96 62.127 1301.39 62.307C1301.83 62.487 1302.2 62.73 1302.5 63.036C1302.8 63.342 1303.05 63.693 1303.24 64.089C1303.42 64.479 1303.56 64.896 1303.64 65.34C1303.72 65.778 1303.77 66.216 1303.77 66.654V72H1302.43ZM1295.41 72V62.28H1296.6V64.674H1296.74V72H1295.41ZM1311.39 72C1310.85 72.114 1310.31 72.159 1309.77 72.135C1309.25 72.111 1308.77 71.997 1308.35 71.793C1307.94 71.589 1307.62 71.271 1307.41 70.839C1307.23 70.479 1307.14 70.116 1307.12 69.75C1307.11 69.378 1307.1 68.955 1307.1 68.481V59.58H1308.41V68.427C1308.41 68.835 1308.42 69.177 1308.42 69.453C1308.44 69.723 1308.5 69.963 1308.61 70.173C1308.83 70.575 1309.17 70.815 1309.64 70.893C1310.11 70.971 1310.7 70.953 1311.39 70.839V72ZM1305.02 63.414V62.28H1311.39V63.414H1305.02Z" fill="#BFBFBF"/>
<path d="M1690.75 78.728L1683.39 71.366M1683.39 71.366C1685.31 69.4433 1686.5 66.787 1686.5 63.853C1686.5 57.985 1681.74 53.228 1675.88 53.228C1670.01 53.228 1665.25 57.985 1665.25 63.853C1665.25 69.7211 1670.01 74.478 1675.88 74.478C1678.81 74.478 1681.47 73.2888 1683.39 71.366Z" stroke="white" stroke-width="2" stroke-linecap="round" stroke-linejoin="round"/>
<path d="M1746.05 73.1771C1748.73 72.8588 1751.32 72.2277 1753.77 71.3215C1751.74 69.0621 1750.5 66.071 1750.5 62.7905V61.7977C1750.5 61.7745 1750.5 61.7513 1750.5 61.728C1750.5 57.0336 1746.69 53.228 1742 53.228C1737.31 53.228 1733.5 57.0336 1733.5 61.728L1733.5 62.7905C1733.5 66.071 1732.26 69.0621 1730.23 71.3215C1732.68 72.2278 1735.27 72.8588 1737.95 73.1772M1746.05 73.1771C1744.72 73.3345 1743.37 73.4155 1742 73.4155C1740.63 73.4155 1739.28 73.3346 1737.95 73.1772M1746.05 73.1771C1746.18 73.5871 1746.25 74.0243 1746.25 74.478C1746.25 76.8252 1744.35 78.728 1742 78.728C1739.65 78.728 1737.75 76.8252 1737.75 74.478C1737.75 74.0243 1737.82 73.5872 1737.95 73.1772" stroke="white" stroke-width="2" stroke-linecap="round" stroke-linejoin="round"/>
</svg>
