<svg width="34" height="35" viewBox="0 0 34 35" fill="none" xmlns="http://www.w3.org/2000/svg">
<path d="M21.0472 25.1771C23.7312 24.8588 26.3193 24.2277 28.7741 23.3215C26.7386 21.0621 25.4997 18.071 25.4997 14.7905V13.7977C25.4999 13.7745 25.5 13.7513 25.5 13.728C25.5 9.03361 21.6944 5.22803 17 5.22803C12.3056 5.22803 8.5 9.03361 8.5 13.728L8.49972 14.7905C8.49972 18.071 7.2608 21.0621 5.22534 23.3215C7.68032 24.2278 10.2686 24.8588 12.9528 25.1772M21.0472 25.1771C19.72 25.3345 18.3693 25.4155 16.9997 25.4155C15.6303 25.4155 14.2798 25.3346 12.9528 25.1772M21.0472 25.1771C21.1789 25.5871 21.25 26.0243 21.25 26.478C21.25 28.8252 19.3472 30.728 17 30.728C14.6528 30.728 12.75 28.8252 12.75 26.478C12.75 26.0243 12.8211 25.5872 12.9528 25.1772" stroke="white" stroke-width="2" stroke-linecap="round" stroke-linejoin="round"/>
</svg>
