<svg width="10" height="12" viewBox="0 0 10 12" fill="none" xmlns="http://www.w3.org/2000/svg">
<path d="M9.75146 1.26179C9.75146 1.09439 9.69569 0.933849 9.59641 0.815482C9.49712 0.697114 9.36246 0.630615 9.22205 0.630615C9.08165 0.630615 8.94699 0.697114 8.8477 0.815482C8.74842 0.933849 8.69264 1.09439 8.69264 1.26179V5.36189L2.05699 0.771998C1.50641 0.39077 0.751465 0.826279 0.751465 1.65059V10.9718C0.751465 11.7961 1.50641 12.2316 2.05699 11.8503L8.69264 7.26045V11.3606C8.69264 11.528 8.74842 11.6885 8.8477 11.8069C8.94699 11.9252 9.08165 11.9917 9.22205 11.9917C9.36246 11.9917 9.49712 11.9252 9.59641 11.8069C9.69569 11.6885 9.75146 11.528 9.75146 11.3606V1.26179ZM1.81029 2.06085L7.9557 6.31117L1.81029 10.5615V2.06085Z" fill="white"/>
</svg>
