<svg width="41" height="40" viewBox="0 0 41 40" fill="none" xmlns="http://www.w3.org/2000/svg">
<g clip-path="url(#clip0_58_323)">
<g filter="url(#filter0_b_58_323)">
<mask id="path-1-inside-1_58_323" fill="white">
<path fill-rule="evenodd" clip-rule="evenodd" d="M33.4698 6.19995H20.4638H7.47004C6.15112 6.19995 5.78475 6.56541 5.78475 7.8445V21.61C5.78475 22.8769 6.16333 23.2545 7.40898 23.2545H33.4698C34.7155 23.2545 35.0941 22.8769 35.0941 21.61V7.8445C35.0941 6.57759 34.7155 6.19995 33.4698 6.19995ZM3.70868 33H20.3784H37.1824C37.4754 33 37.793 32.9878 38.0738 32.8903C38.7211 32.671 38.9165 32.135 38.5868 31.5381C37.4268 29.4189 36.2547 27.3119 35.0826 25.2049L35.0819 25.2036C34.801 24.7163 34.398 24.4727 33.8362 24.4727H7.0304C6.46864 24.4727 6.06564 24.7163 5.79697 25.2036L5.79695 25.2036C4.62458 27.3111 3.45222 29.4185 2.29206 31.5381C1.96234 32.135 2.16994 32.671 2.81719 32.8903C3.08586 32.9878 3.40338 33 3.70868 33ZM21.1966 30.5663C20.9401 30.5649 20.6837 30.5636 20.4272 30.5636C20.1712 30.5636 19.9152 30.5649 19.6587 30.5663C19.1445 30.569 18.6284 30.5717 18.1069 30.5636C17.3253 30.5514 16.788 30.0641 16.7757 29.3698C16.7635 28.651 17.3131 28.1394 18.1313 28.1394C19.67 28.1272 21.221 28.1272 22.7597 28.1394C23.5413 28.1516 24.0787 28.6389 24.0909 29.3332C24.1031 30.0398 23.5535 30.5514 22.7353 30.5636C22.2224 30.5717 21.7095 30.569 21.1966 30.5663Z"/>
</mask>
<path fill-rule="evenodd" clip-rule="evenodd" d="M33.4698 6.19995H20.4638H7.47004C6.15112 6.19995 5.78475 6.56541 5.78475 7.8445V21.61C5.78475 22.8769 6.16333 23.2545 7.40898 23.2545H33.4698C34.7155 23.2545 35.0941 22.8769 35.0941 21.61V7.8445C35.0941 6.57759 34.7155 6.19995 33.4698 6.19995ZM3.70868 33H20.3784H37.1824C37.4754 33 37.793 32.9878 38.0738 32.8903C38.7211 32.671 38.9165 32.135 38.5868 31.5381C37.4268 29.4189 36.2547 27.3119 35.0826 25.2049L35.0819 25.2036C34.801 24.7163 34.398 24.4727 33.8362 24.4727H7.0304C6.46864 24.4727 6.06564 24.7163 5.79697 25.2036L5.79695 25.2036C4.62458 27.3111 3.45222 29.4185 2.29206 31.5381C1.96234 32.135 2.16994 32.671 2.81719 32.8903C3.08586 32.9878 3.40338 33 3.70868 33ZM21.1966 30.5663C20.9401 30.5649 20.6837 30.5636 20.4272 30.5636C20.1712 30.5636 19.9152 30.5649 19.6587 30.5663C19.1445 30.569 18.6284 30.5717 18.1069 30.5636C17.3253 30.5514 16.788 30.0641 16.7757 29.3698C16.7635 28.651 17.3131 28.1394 18.1313 28.1394C19.67 28.1272 21.221 28.1272 22.7597 28.1394C23.5413 28.1516 24.0787 28.6389 24.0909 29.3332C24.1031 30.0398 23.5535 30.5514 22.7353 30.5636C22.2224 30.5717 21.7095 30.569 21.1966 30.5663Z" fill="#E60000"/>
<path d="M38.0738 32.8903L37.753 31.9432L37.7461 31.9456L38.0738 32.8903ZM38.5868 31.5381L37.7096 32.0183L37.7114 32.0217L38.5868 31.5381ZM35.0826 25.2049L35.9564 24.7187L35.9556 24.7172L35.0826 25.2049ZM35.0819 25.2036L35.955 24.7159L35.9482 24.7042L35.0819 25.2036ZM5.79697 25.2036L6.67186 25.6879L6.67268 25.6864L5.79697 25.2036ZM5.79695 25.2036L6.67083 25.6898L6.67184 25.6879L5.79695 25.2036ZM2.29206 31.5381L3.1674 32.0217L3.16926 32.0183L2.29206 31.5381ZM2.81719 32.8903L3.15818 31.9503L3.14815 31.9466L3.13805 31.9432L2.81719 32.8903ZM21.1966 30.5663L21.1913 31.5663H21.1913L21.1966 30.5663ZM19.6587 30.5663L19.6535 29.5663H19.6535L19.6587 30.5663ZM18.1069 30.5636L18.1225 29.5637H18.1225L18.1069 30.5636ZM16.7757 29.3698L15.7759 29.3868L15.7759 29.3874L16.7757 29.3698ZM18.1313 28.1394V29.1394L18.1392 29.1394L18.1313 28.1394ZM22.7597 28.1394L22.7753 27.1395L22.7676 27.1394L22.7597 28.1394ZM24.0909 29.3332L25.0907 29.3159L25.0907 29.3156L24.0909 29.3332ZM22.7353 30.5636L22.7204 29.5637L22.7195 29.5637L22.7353 30.5636ZM20.4638 7.19995H33.4698V5.19995H20.4638V7.19995ZM7.47004 7.19995H20.4638V5.19995H7.47004V7.19995ZM6.78476 7.8445C6.78476 7.56218 6.80613 7.39424 6.83122 7.2965C6.85327 7.21057 6.86659 7.22361 6.83262 7.25689C6.79998 7.28887 6.79224 7.27201 6.88989 7.24791C6.99747 7.22136 7.17656 7.19995 7.47004 7.19995V5.19995C6.79524 5.19995 5.99896 5.27376 5.43298 5.82824C4.85999 6.3896 4.78475 7.18438 4.78475 7.8445H6.78476ZM6.78476 21.61V7.8445H4.78475V21.61H6.78476ZM7.40898 22.2545C7.13866 22.2545 6.97695 22.2329 6.88316 22.2084C6.80029 22.1866 6.81006 22.1731 6.84025 22.2036C6.86987 22.2335 6.85462 22.2408 6.83182 22.1522C6.80643 22.0535 6.78476 21.8862 6.78476 21.61H4.78475C4.78475 22.2745 4.86703 23.0535 5.41925 23.611C5.97464 24.1718 6.75254 24.2545 7.40898 24.2545V22.2545ZM33.4698 22.2545H7.40898V24.2545H33.4698V22.2545ZM34.0941 21.61C34.0941 21.8862 34.0724 22.0535 34.047 22.1522C34.0242 22.2408 34.0089 22.2335 34.0386 22.2036C34.0688 22.1731 34.0785 22.1866 33.9957 22.2084C33.9019 22.2329 33.7402 22.2545 33.4698 22.2545V24.2545C34.1263 24.2545 34.9042 24.1718 35.4596 23.611C36.0118 23.0535 36.0941 22.2745 36.0941 21.61H34.0941ZM34.0941 7.8445V21.61H36.0941V7.8445H34.0941ZM33.4698 7.19995C33.7402 7.19995 33.9019 7.22152 33.9957 7.2461C34.0785 7.26781 34.0688 7.28131 34.0386 7.25083C34.0089 7.22092 34.0242 7.21368 34.047 7.30227C34.0724 7.40093 34.0941 7.56829 34.0941 7.8445H36.0941C36.0941 7.17997 36.0118 6.401 35.4596 5.84344C34.9042 5.28268 34.1263 5.19995 33.4698 5.19995V7.19995ZM20.3784 32H3.70868V34H20.3784V32ZM37.1824 32H20.3784V34H37.1824V32ZM37.7461 31.9456C37.6388 31.9828 37.4716 32 37.1824 32V34C37.4793 34 37.9472 33.9928 38.4016 33.8351L37.7461 31.9456ZM37.7114 32.0217C37.7438 32.0803 37.746 32.1064 37.7451 32.0996C37.7446 32.0958 37.7436 32.0843 37.7454 32.0666C37.7473 32.0486 37.7519 32.0273 37.7604 32.0046C37.7689 31.9819 37.7799 31.9619 37.7914 31.9455C37.8029 31.9294 37.8129 31.9196 37.818 31.9152C37.8276 31.9068 37.8134 31.9227 37.753 31.9432L38.3947 33.8374C38.9219 33.6588 39.4124 33.295 39.633 32.7071C39.8516 32.1242 39.7256 31.5317 39.4621 31.0546L37.7114 32.0217ZM34.2087 25.691C35.3811 27.7985 36.5516 29.9026 37.7096 32.0183L39.464 31.058C38.3021 28.9353 37.1283 26.8253 35.9564 24.7187L34.2087 25.691ZM34.2088 25.6912L34.2095 25.6925L35.9556 24.7172L35.9549 24.7159L34.2088 25.6912ZM33.8362 25.4727C33.9677 25.4727 34.0272 25.4995 34.0555 25.5163C34.0856 25.5341 34.1435 25.5781 34.2155 25.703L35.9482 24.7042C35.7393 24.3418 35.4552 24.0204 35.0732 23.7946C34.6893 23.5676 34.2664 23.4727 33.8362 23.4727V25.4727ZM7.0304 25.4727H33.8362V23.4727H7.0304V25.4727ZM6.67268 25.6864C6.73748 25.5689 6.79001 25.5297 6.81545 25.5146C6.8402 25.4998 6.89809 25.4727 7.0304 25.4727V23.4727C6.60096 23.4727 6.17646 23.5673 5.79211 23.7962C5.40843 24.0247 5.12513 24.351 4.92126 24.7207L6.67268 25.6864ZM6.67184 25.6879L6.67186 25.6879L4.92208 24.7193L4.92205 24.7193L6.67184 25.6879ZM3.16926 32.0183C4.32749 29.9022 5.49819 27.7977 6.67083 25.6898L4.92307 24.7175C3.75098 26.8244 2.57694 28.9349 1.41487 31.058L3.16926 32.0183ZM3.13805 31.9432C3.07672 31.9224 3.05996 31.9056 3.06704 31.9117C3.07084 31.9149 3.0798 31.9234 3.09049 31.9382C3.10131 31.9532 3.11199 31.9721 3.12053 31.9941C3.12906 32.0161 3.13391 32.0372 3.13605 32.0557C3.13816 32.0739 3.13726 32.0864 3.13663 32.0915C3.13546 32.1011 3.13635 32.0779 3.16739 32.0217L1.41674 31.0546C1.14934 31.5387 1.03003 32.1353 1.256 32.7176C1.48191 33.2998 1.97235 33.6599 2.49633 33.8374L3.13805 31.9432ZM3.70868 32C3.39933 32 3.24358 31.9812 3.15818 31.9503L2.4762 33.8304C2.92814 33.9943 3.40742 34 3.70868 34V32ZM20.4272 31.5636C20.6806 31.5636 20.9344 31.5649 21.1913 31.5663L21.2018 29.5663C20.9458 29.565 20.6867 29.5636 20.4272 29.5636V31.5636ZM19.664 31.5663C19.9209 31.5649 20.1743 31.5636 20.4272 31.5636V29.5636C20.1681 29.5636 19.9095 29.565 19.6535 29.5663L19.664 31.5663ZM18.0913 31.5635C18.6249 31.5718 19.1514 31.569 19.664 31.5663L19.6535 29.5663C19.1376 29.569 18.6318 29.5717 18.1225 29.5637L18.0913 31.5635ZM15.7759 29.3874C15.7867 30.0022 16.0371 30.5638 16.484 30.9659C16.9237 31.3615 17.4972 31.5542 18.0913 31.5635L18.1225 29.5637C17.935 29.5608 17.8491 29.5038 17.8216 29.4791C17.8014 29.4609 17.777 29.4317 17.7756 29.3522L15.7759 29.3874ZM18.1313 27.1394C17.5148 27.1394 16.9188 27.3342 16.4673 27.7471C16.008 28.167 15.7651 28.754 15.7759 29.3868L17.7756 29.3528C17.7748 29.3039 17.7834 29.2756 17.7893 29.2615C17.7952 29.2476 17.8033 29.2355 17.8169 29.2231C17.8417 29.2004 17.9296 29.1394 18.1313 29.1394V27.1394ZM22.7676 27.1394C21.2236 27.1272 19.6674 27.1272 18.1234 27.1394L18.1392 29.1394C19.6727 29.1272 21.2184 29.1272 22.7518 29.1394L22.7676 27.1394ZM25.0907 29.3156C25.0799 28.7008 24.8295 28.1392 24.3827 27.7371C23.943 27.3415 23.3695 27.1488 22.7753 27.1395L22.7441 29.1393C22.9316 29.1422 23.0175 29.1992 23.045 29.2239C23.0652 29.2421 23.0896 29.2713 23.091 29.3508L25.0907 29.3156ZM22.7502 31.5635C23.3627 31.5544 23.9524 31.3555 24.3993 30.9468C24.8546 30.5305 25.1016 29.9484 25.0907 29.3159L23.091 29.3505C23.0918 29.3938 23.084 29.4187 23.0787 29.4312C23.0734 29.4438 23.0652 29.4566 23.0497 29.4708C23.0204 29.4976 22.9262 29.5606 22.7204 29.5637L22.7502 31.5635ZM21.1913 31.5663C21.7024 31.569 22.2259 31.5718 22.7511 31.5635L22.7195 29.5637C22.2189 29.5716 21.7165 29.569 21.2018 29.5663L21.1913 31.5663Z" fill="#E60000" mask="url(#path-1-inside-1_58_323)"/>
</g>
</g>
<defs>
<filter id="filter0_b_58_323" x="-9.86263" y="-5.80005" width="60.607" height="50.8" filterUnits="userSpaceOnUse" color-interpolation-filters="sRGB">
<feFlood flood-opacity="0" result="BackgroundImageFix"/>
<feGaussianBlur in="BackgroundImageFix" stdDeviation="6"/>
<feComposite in2="SourceAlpha" operator="in" result="effect1_backgroundBlur_58_323"/>
<feBlend mode="normal" in="SourceGraphic" in2="effect1_backgroundBlur_58_323" result="shape"/>
</filter>
<clipPath id="clip0_58_323">
<rect width="36.6" height="26.8" fill="white" transform="translate(2.13332 6.19995)"/>
</clipPath>
</defs>
</svg>
