<svg width="20" height="20" viewBox="0 0 20 20" fill="none" xmlns="http://www.w3.org/2000/svg">
<path d="M9.48073 1.9987C9.67288 1.53673 10.3273 1.53673 10.5195 1.9987L12.6454 7.11016C12.7264 7.30492 12.9096 7.43799 13.1199 7.45485L18.6381 7.89724C19.1369 7.93722 19.3391 8.55963 18.9591 8.88514L14.7548 12.4866C14.5946 12.6238 14.5246 12.8391 14.5736 13.0443L15.858 18.4292C15.9741 18.9159 15.4447 19.3005 15.0177 19.0397L10.2933 16.1541C10.1133 16.0441 9.88691 16.0441 9.7069 16.1541L4.98251 19.0397C4.55551 19.3005 4.02606 18.9159 4.14215 18.4292L5.42664 13.0443C5.47558 12.8391 5.40562 12.6238 5.24543 12.4866L1.04111 8.88514C0.661119 8.55964 0.863352 7.93722 1.36209 7.89724L6.88034 7.45485C7.0906 7.43799 7.27375 7.30492 7.35476 7.11016L9.48073 1.9987Z" stroke="#999999" stroke-width="1.5" stroke-linecap="round" stroke-linejoin="round"/>
</svg>
