<svg width="25" height="24" viewBox="0 0 25 24" fill="none" xmlns="http://www.w3.org/2000/svg">
<path d="M6.06641 4.65724C6.4435 4.55472 6.84029 4.5 7.24986 4.5H17.7499C18.1594 4.5 18.5562 4.55472 18.9333 4.65724C18.4406 3.67454 17.424 3 16.2499 3H8.74986C7.5757 3 6.5591 3.67454 6.06641 4.65724Z" fill="#999999"/>
<path d="M2.75 12C2.75 10.3431 4.09315 9 5.75 9H19.25C20.9069 9 22.25 10.3431 22.25 12V18C22.25 19.6569 20.9069 21 19.25 21H5.75C4.09315 21 2.75 19.6569 2.75 18V12Z" fill="#999999"/>
<path d="M5.74986 7.5C5.34029 7.5 4.9435 7.55472 4.56641 7.65724C5.0591 6.67454 6.0757 6 7.24986 6H17.7499C18.924 6 19.9406 6.67454 20.4333 7.65724C20.0562 7.55472 19.6594 7.5 19.2499 7.5H5.74986Z" fill="#999999"/>
</svg>
