<svg width="39" height="39" viewBox="0 0 39 39" fill="none" xmlns="http://www.w3.org/2000/svg">
<path d="M35.8135 20.7868C35.4953 20.431 35.3198 19.9736 35.3198 19.5C35.3198 19.0264 35.4953 18.569 35.8135 18.2132L38.3541 15.4056C38.6341 15.0988 38.8079 14.7128 38.8507 14.303C38.8935 13.8932 38.803 13.4806 38.5923 13.1244L34.6226 6.37828C34.414 6.0225 34.0964 5.74048 33.715 5.57243C33.3337 5.40438 32.908 5.35888 32.4988 5.44241L28.7673 6.18331C28.2925 6.27968 27.7982 6.20201 27.3777 5.96494C26.9572 5.72787 26.6395 5.34782 26.4847 4.89649L25.274 1.32847C25.1408 0.941213 24.8871 0.604856 24.5488 0.366944C24.2104 0.129031 23.8045 0.00159644 23.3884 0.00265156H15.449C15.0161 -0.0195404 14.5878 0.098045 14.2294 0.337448C13.871 0.576852 13.6022 0.924913 13.4641 1.32847L12.3526 4.89649C12.1978 5.34782 11.8802 5.72787 11.4596 5.96494C11.0391 6.20201 10.5448 6.27968 10.07 6.18331L6.23927 5.44241C5.85134 5.38856 5.45585 5.44869 5.10264 5.61524C4.74943 5.78178 4.4543 6.04727 4.25442 6.37828L0.284728 13.1244C0.0686976 13.4766 -0.0284368 13.8869 0.00721203 14.2966C0.0428609 14.7063 0.209467 15.0945 0.483213 15.4056L3.00397 18.2132C3.32218 18.569 3.49767 19.0264 3.49767 19.5C3.49767 19.9736 3.32218 20.431 3.00397 20.7868L0.483213 23.5944C0.209467 23.9055 0.0428609 24.2937 0.00721203 24.7034C-0.0284368 25.1131 0.0686976 25.5234 0.284728 25.8756L4.25442 32.6217C4.46303 32.9775 4.78064 33.2595 5.162 33.4276C5.54336 33.5956 5.96898 33.6411 6.37821 33.5576L10.1097 32.8167C10.5845 32.7203 11.0788 32.798 11.4993 33.0351C11.9199 33.2721 12.2375 33.6522 12.3923 34.1035L13.6031 37.6715C13.7412 38.0751 14.0099 38.4231 14.3683 38.6625C14.7268 38.902 15.1551 39.0195 15.5879 38.9973H23.5273C23.9434 38.9984 24.3493 38.871 24.6877 38.6331C25.0261 38.3951 25.2797 38.0588 25.4129 37.6715L26.6237 34.1035C26.7785 33.6522 27.0961 33.2721 27.5166 33.0351C27.9371 32.798 28.4314 32.7203 28.9062 32.8167L32.6377 33.5576C33.047 33.6411 33.4726 33.5956 33.854 33.4276C34.2353 33.2595 34.5529 32.9775 34.7615 32.6217L38.7312 25.8756C38.942 25.5194 39.0324 25.1068 38.9896 24.697C38.9469 24.2872 38.773 23.9012 38.4931 23.5944L35.8135 20.7868ZM32.8561 23.3995L34.444 25.1542L31.9034 29.4826L29.5612 29.0147C28.1317 28.7277 26.6446 28.9662 25.3823 29.685C24.12 30.4039 23.1703 31.5529 22.7135 32.9142L21.9593 35.0979H16.8781L16.1635 32.8752C15.7067 31.514 14.757 30.3649 13.4947 29.646C12.2324 28.9272 10.7453 28.6887 9.31579 28.9757L6.97367 29.4436L4.39336 25.1347L5.98124 23.38C6.9577 22.3076 7.49753 20.9193 7.49753 19.4805C7.49753 18.0417 6.9577 16.6534 5.98124 15.581L4.39336 13.8263L6.93397 9.53685L9.27609 10.0048C10.7056 10.2918 12.1927 10.0533 13.455 9.33447C14.7173 8.61564 15.667 7.46655 16.1238 6.10532L16.8781 3.90212H21.9593L22.7135 6.12482C23.1703 7.48604 24.12 8.63513 25.3823 9.35397C26.6446 10.0728 28.1317 10.3113 29.5612 10.0243L31.9034 9.55635L34.444 13.8848L32.8561 15.6395C31.8906 16.7095 31.3575 18.0897 31.3575 19.5195C31.3575 20.9493 31.8906 22.3295 32.8561 23.3995ZM19.4187 11.7011C17.8484 11.7011 16.3134 12.1585 15.0078 13.0154C13.7021 13.8724 12.6845 15.0904 12.0836 16.5155C11.4827 17.9405 11.3255 19.5087 11.6318 21.0215C11.9382 22.5343 12.6943 23.924 13.8047 25.0147C14.915 26.1054 16.3297 26.8482 17.8698 27.1491C19.4099 27.45 21.0062 27.2956 22.4569 26.7053C23.9077 26.115 25.1476 25.1154 26.02 23.8329C26.8924 22.5503 27.3581 21.0425 27.3581 19.5C27.3581 17.4316 26.5216 15.4479 25.0327 13.9853C23.5437 12.5227 21.5243 11.7011 19.4187 11.7011ZM19.4187 23.3995C18.6335 23.3995 17.866 23.1708 17.2132 22.7423C16.5604 22.3138 16.0516 21.7048 15.7511 20.9923C15.4507 20.2797 15.3721 19.4957 15.5252 18.7393C15.6784 17.9828 16.0565 17.288 16.6117 16.7427C17.1668 16.1973 17.8742 15.8259 18.6442 15.6755C19.4143 15.525 20.2124 15.6022 20.9378 15.8974C21.6632 16.1925 22.2831 16.6923 22.7193 17.3336C23.1555 17.9748 23.3884 18.7288 23.3884 19.5C23.3884 20.5342 22.9701 21.526 22.2257 22.2573C21.4812 22.9886 20.4715 23.3995 19.4187 23.3995Z" fill="white"/>
</svg>
