<svg width="40" height="40" viewBox="0 0 40 40" fill="none" xmlns="http://www.w3.org/2000/svg">
<g clip-path="url(#clip0_58_316)">
<g filter="url(#filter0_b_58_316)">
<path d="M10.4 19.6002C10.4 14.9569 10.3888 10.3023 10.4 5.65893C10.4 3.74762 11.3669 2.3535 13.0646 1.80259C13.4693 1.66767 13.9078 1.61146 14.3351 1.61146C18.2589 1.60022 22.1827 1.60022 26.0952 1.61146C28.3775 1.6227 30.0415 3.27542 30.0415 5.5465C30.0527 14.9231 30.0527 24.2885 30.0415 33.6652C30.0415 35.9363 28.3775 37.6002 26.1065 37.6002C22.2276 37.6115 18.3488 37.6115 14.47 37.6002C12.0415 37.6002 10.4225 36.0037 10.4113 33.5527C10.3888 28.8982 10.4 24.2548 10.4 19.6002ZM20.2264 4.87192C19.4619 4.87192 18.6973 4.87192 17.9216 4.87192C17.3144 4.88316 16.9772 5.16424 16.9659 5.65893C16.9547 6.16486 17.2695 6.5134 17.8541 6.5134C19.4281 6.53588 20.9909 6.53588 22.5649 6.5134C23.1271 6.50215 23.5093 6.11989 23.4868 5.65893C23.4644 5.18672 23.0933 4.87192 22.5199 4.87192C21.7554 4.87192 20.9909 4.87192 20.2264 4.87192ZM20.2264 31.0793C19.3045 31.0793 18.5737 31.8101 18.5849 32.7095C18.5961 33.609 19.3494 34.3398 20.2489 34.3285C21.1258 34.3173 21.8341 33.5977 21.8341 32.7095C21.8454 31.7764 21.1483 31.0793 20.2264 31.0793Z" fill="#E60000"/>
<path d="M17.9216 4.37184V4.37192H17.9261H17.9307H17.9352H17.9397H17.9443H17.9488H17.9534H17.9579H17.9625H17.967H17.9716H17.9761H17.9806H17.9852H17.9897H17.9943H17.9988H18.0033H18.0079H18.0124H18.017H18.0215H18.026H18.0306H18.0351H18.0397H18.0442H18.0487H18.0533H18.0578H18.0624H18.0669H18.0714H18.076H18.0805H18.085H18.0896H18.0941H18.0986H18.1032H18.1077H18.1123H18.1168H18.1213H18.1259H18.1304H18.1349H18.1395H18.144H18.1485H18.1531H18.1576H18.1621H18.1667H18.1712H18.1757H18.1803H18.1848H18.1893H18.1939H18.1984H18.2029H18.2074H18.212H18.2165H18.221H18.2256H18.2301H18.2346H18.2391H18.2437H18.2482H18.2527H18.2573H18.2618H18.2663H18.2708H18.2754H18.2799H18.2844H18.289H18.2935H18.298H18.3025H18.3071H18.3116H18.3161H18.3206H18.3252H18.3297H18.3342H18.3387H18.3433H18.3478H18.3523H18.3568H18.3613H18.3659H18.3704H18.3749H18.3794H18.384H18.3885H18.393H18.3975H18.402H18.4066H18.4111H18.4156H18.4201H18.4246H18.4292H18.4337H18.4382H18.4427H18.4472H18.4518H18.4563H18.4608H18.4653H18.4698H18.4744H18.4789H18.4834H18.4879H18.4924H18.4969H18.5015H18.506H18.5105H18.515H18.5195H18.524H18.5286H18.5331H18.5376H18.5421H18.5466H18.5511H18.5556H18.5602H18.5647H18.5692H18.5737H18.5782H18.5827H18.5872H18.5918H18.5963H18.6008H18.6053H18.6098H18.6143H18.6188H18.6233H18.6279H18.6324H18.6369H18.6414H18.6459H18.6504H18.6549H18.6594H18.6639H18.6684H18.673H18.6775H18.682H18.6865H18.691H18.6955H18.7H18.7045H18.709H18.7135H18.718H18.7226H18.7271H18.7316H18.7361H18.7406H18.7451H18.7496H18.7541H18.7586H18.7631H18.7676H18.7721H18.7766H18.7811H18.7856H18.7902H18.7947H18.7992H18.8037H18.8082H18.8127H18.8172H18.8217H18.8262H18.8307H18.8352H18.8397H18.8442H18.8487H18.8532H18.8577H18.8622H18.8667H18.8712H18.8757H18.8802H18.8847H18.8892H18.8937H18.8982H18.9027H18.9072H18.9117H18.9162H18.9207H18.9252H18.9297H18.9342H18.9387H18.9432H18.9477H18.9522H18.9567H18.9612H18.9657H18.9702H18.9747H18.9792H18.9837H18.9882H18.9927H18.9972H19.0017H19.0062H19.0107H19.0152H19.0197H19.0242H19.0287H19.0332H19.0377H19.0422H19.0467H19.0512H19.0557H19.0602H19.0647H19.0692H19.0737H19.0782H19.0827H19.0872H19.0917H19.0962H19.1007H19.1052H19.1097H19.1142H19.1186H19.1231H19.1276H19.1321H19.1366H19.1411H19.1456H19.1501H19.1546H19.1591H19.1636H19.1681H19.1726H19.1771H19.1816H19.1861H19.1906H19.195H19.1995H19.204H19.2085H19.213H19.2175H19.222H19.2265H19.231H19.2355H19.24H19.2445H19.249H19.2534H19.2579H19.2624H19.2669H19.2714H19.2759H19.2804H19.2849H19.2894H19.2939H19.2984H19.3028H19.3073H19.3118H19.3163H19.3208H19.3253H19.3298H19.3343H19.3388H19.3433H19.3477H19.3522H19.3567H19.3612H19.3657H19.3702H19.3747H19.3792H19.3837H19.3881H19.3926H19.3971H19.4016H19.4061H19.4106H19.4151H19.4196H19.424H19.4285H19.433H19.4375H19.442H19.4465H19.451H19.4555H19.4599H19.4644H19.4689H19.4734H19.4779H19.4824H19.4869H19.4913H19.4958H19.5003H19.5048H19.5093H19.5138H19.5183H19.5228H19.5272H19.5317H19.5362H19.5407H19.5452H19.5497H19.5541H19.5586H19.5631H19.5676H19.5721H19.5766H19.5811H19.5855H19.59H19.5945H19.599H19.6035H19.608H19.6125H19.6169H19.6214H19.6259H19.6304H19.6349H19.6394H19.6438H19.6483H19.6528H19.6573H19.6618H19.6663H19.6707H19.6752H19.6797H19.6842H19.6887H19.6932H19.6976H19.7021H19.7066H19.7111H19.7156H19.7201H19.7245H19.729H19.7335H19.738H19.7425H19.747H19.7514H19.7559H19.7604H19.7649H19.7694H19.7738H19.7783H19.7828H19.7873H19.7918H19.7963H19.8007H19.8052H19.8097H19.8142H19.8187H19.8231H19.8276H19.8321H19.8366H19.8411H19.8456H19.85H19.8545H19.859H19.8635H19.868H19.8724H19.8769H19.8814H19.8859H19.8904H19.8948H19.8993H19.9038H19.9083H19.9128H19.9173H19.9217H19.9262H19.9307H19.9352H19.9397H19.9441H19.9486H19.9531H19.9576H19.9621H19.9665H19.971H19.9755H19.98H19.9845H19.9889H19.9934H19.9979H20.0024H20.0069H20.0113H20.0158H20.0203H20.0248H20.0293H20.0337H20.0382H20.0427H20.0472H20.0517H20.0561H20.0606H20.0651H20.0696H20.0741H20.0785H20.083H20.0875H20.092H20.0965H20.1009H20.1054H20.1099H20.1144H20.1189H20.1233H20.1278H20.1323H20.1368H20.1413H20.1457H20.1502H20.1547H20.1592H20.1637H20.1681H20.1726H20.1771H20.1816H20.1861H20.1905H20.195H20.1995H20.204H20.2085H20.2129H20.2174H20.2219H20.2264H20.2309H20.2353H20.2398H20.2443H20.2488H20.2533H20.2577H20.2622H20.2667H20.2712H20.2757H20.2801H20.2846H20.2891H20.2936H20.298H20.3025H20.307H20.3115H20.316H20.3204H20.3249H20.3294H20.3339H20.3384H20.3428H20.3473H20.3518H20.3563H20.3608H20.3652H20.3697H20.3742H20.3787H20.3832H20.3876H20.3921H20.3966H20.4011H20.4056H20.41H20.4145H20.419H20.4235H20.428H20.4324H20.4369H20.4414H20.4459H20.4504H20.4548H20.4593H20.4638H20.4683H20.4728H20.4772H20.4817H20.4862H20.4907H20.4952H20.4996H20.5041H20.5086H20.5131H20.5176H20.522H20.5265H20.531H20.5355H20.5399H20.5444H20.5489H20.5534H20.5579H20.5623H20.5668H20.5713H20.5758H20.5803H20.5847H20.5892H20.5937H20.5982H20.6027H20.6071H20.6116H20.6161H20.6206H20.6251H20.6295H20.634H20.6385H20.643H20.6475H20.6519H20.6564H20.6609H20.6654H20.6699H20.6743H20.6788H20.6833H20.6878H20.6923H20.6967H20.7012H20.7057H20.7102H20.7147H20.7191H20.7236H20.7281H20.7326H20.7371H20.7415H20.746H20.7505H20.755H20.7595H20.7639H20.7684H20.7729H20.7774H20.7818H20.7863H20.7908H20.7953H20.7998H20.8042H20.8087H20.8132H20.8177H20.8222H20.8266H20.8311H20.8356H20.8401H20.8446H20.849H20.8535H20.858H20.8625H20.867H20.8714H20.8759H20.8804H20.8849H20.8894H20.8938H20.8983H20.9028H20.9073H20.9118H20.9162H20.9207H20.9252H20.9297H20.9342H20.9386H20.9431H20.9476H20.9521H20.9566H20.961H20.9655H20.97H20.9745H20.979H20.9834H20.9879H20.9924H20.9969H21.0014H21.0058H21.0103H21.0148H21.0193H21.0237H21.0282H21.0327H21.0372H21.0417H21.0461H21.0506H21.0551H21.0596H21.0641H21.0685H21.073H21.0775H21.082H21.0865H21.0909H21.0954H21.0999H21.1044H21.1089H21.1133H21.1178H21.1223H21.1268H21.1313H21.1357H21.1402H21.1447H21.1492H21.1537H21.1581H21.1626H21.1671H21.1716H21.1761H21.1805H21.185H21.1895H21.194H21.1985H21.2029H21.2074H21.2119H21.2164H21.2209H21.2253H21.2298H21.2343H21.2388H21.2432H21.2477H21.2522H21.2567H21.2612H21.2656H21.2701H21.2746H21.2791H21.2836H21.288H21.2925H21.297H21.3015H21.306H21.3104H21.3149H21.3194H21.3239H21.3284H21.3328H21.3373H21.3418H21.3463H21.3508H21.3552H21.3597H21.3642H21.3687H21.3732H21.3776H21.3821H21.3866H21.3911H21.3956H21.4H21.4045H21.409H21.4135H21.418H21.4224H21.4269H21.4314H21.4359H21.4404H21.4448H21.4493H21.4538H21.4583H21.4628H21.4672H21.4717H21.4762H21.4807H21.4852H21.4896H21.4941H21.4986H21.5031H21.5075H21.512H21.5165H21.521H21.5255H21.5299H21.5344H21.5389H21.5434H21.5479H21.5523H21.5568H21.5613H21.5658H21.5703H21.5747H21.5792H21.5837H21.5882H21.5927H21.5971H21.6016H21.6061H21.6106H21.6151H21.6195H21.624H21.6285H21.633H21.6375H21.6419H21.6464H21.6509H21.6554H21.6599H21.6643H21.6688H21.6733H21.6778H21.6823H21.6867H21.6912H21.6957H21.7002H21.7047H21.7091H21.7136H21.7181H21.7226H21.727H21.7315H21.736H21.7405H21.745H21.7494H21.7539H21.7584H21.7629H21.7674H21.7718H21.7763H21.7808H21.7853H21.7898H21.7942H21.7987H21.8032H21.8077H21.8122H21.8166H21.8211H21.8256H21.8301H21.8346H21.839H21.8435H21.848H21.8525H21.857H21.8614H21.8659H21.8704H21.8749H21.8794H21.8838H21.8883H21.8928H21.8973H21.9018H21.9062H21.9107H21.9152H21.9197H21.9242H21.9286H21.9331H21.9376H21.9421H21.9466H21.951H21.9555H21.96H21.9645H21.9689H21.9734H21.9779H21.9824H21.9869H21.9913H21.9958H22.0003H22.0048H22.0093H22.0137H22.0182H22.0227H22.0272H22.0317H22.0361H22.0406H22.0451H22.0496H22.0541H22.0585H22.063H22.0675H22.072H22.0765H22.0809H22.0854H22.0899H22.0944H22.0989H22.1033H22.1078H22.1123H22.1168H22.1213H22.1257H22.1302H22.1347H22.1392H22.1437H22.1481H22.1526H22.1571H22.1616H22.1661H22.1705H22.175H22.1795H22.184H22.1885H22.1929H22.1974H22.2019H22.2064H22.2108H22.2153H22.2198H22.2243H22.2288H22.2332H22.2377H22.2422H22.2467H22.2512H22.2556H22.2601H22.2646H22.2691H22.2736H22.278H22.2825H22.287H22.2915H22.296H22.3004H22.3049H22.3094H22.3139H22.3184H22.3228H22.3273H22.3318H22.3363H22.3408H22.3452H22.3497H22.3542H22.3587H22.3632H22.3676H22.3721H22.3766H22.3811H22.3856H22.39H22.3945H22.399H22.4035H22.408H22.4124H22.4169H22.4214H22.4259H22.4304H22.4348H22.4393H22.4438H22.4483H22.4527H22.4572H22.4617H22.4662H22.4707H22.4751H22.4796H22.4841H22.4886H22.4931H22.4975H22.502H22.5065H22.511H22.5155H22.5199C22.8959 4.37192 23.2524 4.47555 23.5278 4.70238C23.8095 4.93435 23.9687 5.2654 23.9863 5.63515M17.9216 4.37184L23.4868 5.65893M17.9216 4.37184L17.9123 4.37201C17.5409 4.37889 17.18 4.46885 16.9018 4.69865C16.6101 4.93967 16.4744 5.28052 16.466 5.64757L16.466 5.64782C16.458 6.00793 16.5672 6.36365 16.833 6.62944C17.0974 6.89388 17.4601 7.01262 17.8503 7.01339M17.9216 4.37184L16.9659 5.65893M23.9863 5.63515L23.4868 5.65893M23.9863 5.63515C23.9863 5.63495 23.9863 5.63476 23.9862 5.63457L23.4868 5.65893M23.9863 5.63515C24.0249 6.43368 23.3586 6.99762 22.5749 7.0133L22.5721 7.01335C20.9944 7.03588 19.4279 7.0359 17.8503 7.01339M23.4868 5.65893C23.5093 6.11989 23.1271 6.50215 22.5649 6.5134C20.9909 6.53588 19.4281 6.53588 17.8541 6.5134M17.8503 7.01339C17.8516 7.01339 17.8528 7.0134 17.8541 7.0134V6.5134M17.8503 7.01339C17.8492 7.01338 17.8481 7.01336 17.847 7.01334L17.8541 6.5134M17.8541 6.5134C17.2695 6.5134 16.9547 6.16486 16.9659 5.65893M16.9659 5.65893C16.9772 5.16424 17.3144 4.88316 17.9216 4.87192L16.9659 5.65893ZM10.9 5.66014V5.65893C10.9 3.94471 11.7454 2.75634 13.2189 2.27818L13.2189 2.27819L13.2227 2.27693C13.5661 2.16248 13.9494 2.11146 14.3351 2.11146L14.3365 2.11146C18.2592 2.10022 22.1818 2.10022 26.0932 2.11146C28.1043 2.1216 29.5415 3.55496 29.5415 5.5465V5.5471C29.5527 14.9233 29.5527 24.2883 29.5415 33.6646V33.6652C29.5415 35.6601 28.1014 37.1002 26.1065 37.1002L26.105 37.1002C22.2271 37.1115 18.3493 37.1115 14.4714 37.1002H14.47C13.3675 37.1002 12.4892 36.74 11.8866 36.141C11.2843 35.5422 10.9164 34.6639 10.9113 33.5505L10.9113 33.5503C10.8944 30.0612 10.8965 26.5789 10.8986 23.0918C10.8993 21.9286 10.9 20.7649 10.9 19.6002C10.9 18.052 10.8988 16.5029 10.8975 14.9537C10.895 11.8549 10.8925 8.75535 10.9 5.66014ZM20.2551 34.8285L20.2553 34.8285C21.4079 34.8137 22.3325 33.8699 22.3341 32.7126C22.3472 31.5013 21.4247 30.5793 20.2264 30.5793C19.0341 30.5793 18.0701 31.5296 18.0849 32.7158C18.0997 33.8929 19.0811 34.8431 20.2551 34.8285Z" stroke="#E60000"/>
</g>
</g>
<defs>
<filter id="filter0_b_58_316" x="-1.60498" y="-10.397" width="43.6549" height="60.0056" filterUnits="userSpaceOnUse" color-interpolation-filters="sRGB">
<feFlood flood-opacity="0" result="BackgroundImageFix"/>
<feGaussianBlur in="BackgroundImageFix" stdDeviation="6"/>
<feComposite in2="SourceAlpha" operator="in" result="effect1_backgroundBlur_58_316"/>
<feBlend mode="normal" in="SourceGraphic" in2="effect1_backgroundBlur_58_316" result="shape"/>
</filter>
<clipPath id="clip0_58_316">
<rect width="19.6415" height="36" fill="white" transform="translate(10.4 1.6001)"/>
</clipPath>
</defs>
</svg>
