<svg width="41" height="40" viewBox="0 0 41 40" fill="none" xmlns="http://www.w3.org/2000/svg">
<g clip-path="url(#clip0_58_332)">
<g filter="url(#filter0_b_58_332)">
<mask id="path-1-inside-1_58_332" fill="white">
<path fill-rule="evenodd" clip-rule="evenodd" d="M3.46683 23.3457V23.8258C15.0411 23.8258 26.5372 23.8258 38.078 23.8146V23.3345V8.31841C38.078 7.26895 37.6092 6.80005 36.5377 6.80005H5.00709C3.92444 6.80005 3.46683 7.26895 3.46683 8.32957V23.3457ZM19.7237 18.2975C19.2571 18.5674 18.7873 18.8392 18.3113 19.1144V12.5497C19.5193 13.2534 20.7092 13.9389 21.9126 14.6323C22.5995 15.0281 23.2908 15.4264 23.9924 15.8321C22.5459 16.6649 21.15 17.4724 19.7237 18.2975ZM32.6771 29.8189C32.5668 29.5482 32.4539 29.2712 32.341 28.9837H32.3418C33.8482 28.9837 35.2655 28.9837 36.6604 28.9726C37.4194 28.9614 37.9998 28.5372 38.0332 27.8561C38.0718 27.2079 38.0624 26.5544 38.0529 25.8955C38.0487 25.6011 38.0444 25.3057 38.0444 25.0092H3.45557V27.3761C3.45557 28.5037 3.92434 28.9726 5.04047 28.9726H9.18131C8.8354 29.8432 8.5118 30.6468 8.18821 31.4504L8.18795 31.4511C8.05402 31.8083 7.99821 32.1656 8.44466 32.3331C8.87995 32.5005 9.09202 32.2102 9.23711 31.853C9.33519 31.611 9.43519 31.37 9.53513 31.129C9.7764 30.5475 10.0174 29.9666 10.2305 29.3745C10.3532 29.0507 10.5207 28.9726 10.8443 28.9726C17.463 28.9837 24.0816 28.9837 30.7003 28.9726C31.0463 28.9726 31.1914 29.0842 31.303 29.3968C31.5562 30.069 31.8264 30.7241 32.0988 31.3845C32.1385 31.481 32.1784 31.5776 32.2182 31.6744C32.2461 31.7358 32.2712 31.7944 32.2963 31.853C32.3215 31.9116 32.3466 31.9702 32.3745 32.0316C32.5196 32.3554 32.8209 32.5117 33.0888 32.3219C33.2674 32.1991 33.4236 31.8083 33.3567 31.6074C33.1632 31.0112 32.9267 30.4312 32.6771 29.8189ZM24.9857 27.2086H20.7444C20.276 27.2086 19.8064 27.2074 19.3364 27.2061C18.3952 27.2036 17.4522 27.2011 16.5143 27.2086C16.1348 27.2086 15.7665 27.1639 15.7553 26.6839C15.7441 26.1926 16.1125 26.0922 16.5254 26.0922H24.9969C25.3987 26.0922 25.7781 26.1815 25.7781 26.6727C25.7781 27.1863 25.3763 27.2086 24.9857 27.2086Z"/>
</mask>
<path fill-rule="evenodd" clip-rule="evenodd" d="M3.46683 23.3457V23.8258C15.0411 23.8258 26.5372 23.8258 38.078 23.8146V23.3345V8.31841C38.078 7.26895 37.6092 6.80005 36.5377 6.80005H5.00709C3.92444 6.80005 3.46683 7.26895 3.46683 8.32957V23.3457ZM19.7237 18.2975C19.2571 18.5674 18.7873 18.8392 18.3113 19.1144V12.5497C19.5193 13.2534 20.7092 13.9389 21.9126 14.6323C22.5995 15.0281 23.2908 15.4264 23.9924 15.8321C22.5459 16.6649 21.15 17.4724 19.7237 18.2975ZM32.6771 29.8189C32.5668 29.5482 32.4539 29.2712 32.341 28.9837H32.3418C33.8482 28.9837 35.2655 28.9837 36.6604 28.9726C37.4194 28.9614 37.9998 28.5372 38.0332 27.8561C38.0718 27.2079 38.0624 26.5544 38.0529 25.8955C38.0487 25.6011 38.0444 25.3057 38.0444 25.0092H3.45557V27.3761C3.45557 28.5037 3.92434 28.9726 5.04047 28.9726H9.18131C8.8354 29.8432 8.5118 30.6468 8.18821 31.4504L8.18795 31.4511C8.05402 31.8083 7.99821 32.1656 8.44466 32.3331C8.87995 32.5005 9.09202 32.2102 9.23711 31.853C9.33519 31.611 9.43519 31.37 9.53513 31.129C9.7764 30.5475 10.0174 29.9666 10.2305 29.3745C10.3532 29.0507 10.5207 28.9726 10.8443 28.9726C17.463 28.9837 24.0816 28.9837 30.7003 28.9726C31.0463 28.9726 31.1914 29.0842 31.303 29.3968C31.5562 30.069 31.8264 30.7241 32.0988 31.3845C32.1385 31.481 32.1784 31.5776 32.2182 31.6744C32.2461 31.7358 32.2712 31.7944 32.2963 31.853C32.3215 31.9116 32.3466 31.9702 32.3745 32.0316C32.5196 32.3554 32.8209 32.5117 33.0888 32.3219C33.2674 32.1991 33.4236 31.8083 33.3567 31.6074C33.1632 31.0112 32.9267 30.4312 32.6771 29.8189ZM24.9857 27.2086H20.7444C20.276 27.2086 19.8064 27.2074 19.3364 27.2061C18.3952 27.2036 17.4522 27.2011 16.5143 27.2086C16.1348 27.2086 15.7665 27.1639 15.7553 26.6839C15.7441 26.1926 16.1125 26.0922 16.5254 26.0922H24.9969C25.3987 26.0922 25.7781 26.1815 25.7781 26.6727C25.7781 27.1863 25.3763 27.2086 24.9857 27.2086Z" fill="#E60000"/>
<path d="M3.46683 23.8258H2.46683V24.8258H3.46683V23.8258ZM38.078 23.8146L38.079 24.8146L39.078 24.8136V23.8146H38.078ZM18.3113 19.1144H17.3113V20.8477L18.8119 19.9801L18.3113 19.1144ZM19.7237 18.2975L19.2229 17.4319L19.7237 18.2975ZM18.3113 12.5497L18.8147 11.6856L17.3113 10.8099V12.5497H18.3113ZM21.9126 14.6323L22.4118 13.7658V13.7658L21.9126 14.6323ZM23.9924 15.8321L24.4914 16.6987L25.9934 15.8339L24.493 14.9664L23.9924 15.8321ZM32.341 28.9837V27.9837H30.8739L31.4102 29.3493L32.341 28.9837ZM32.6771 29.8189L33.6032 29.4414L33.6032 29.4414L32.6771 29.8189ZM36.6604 28.9726L36.6684 29.9726L36.6751 29.9725L36.6604 28.9726ZM38.0332 27.8561L37.035 27.7967L37.0344 27.807L38.0332 27.8561ZM38.0529 25.8955L39.0528 25.8811V25.8811L38.0529 25.8955ZM38.0444 25.0092H39.0444V24.0092H38.0444V25.0092ZM3.45557 25.0092V24.0092H2.45557V25.0092H3.45557ZM9.18131 28.9726L10.1106 29.3418L10.6547 27.9726H9.18131V28.9726ZM8.18821 31.4504L7.26059 31.0769L7.26059 31.0769L8.18821 31.4504ZM8.18795 31.4511L7.26033 31.0776L7.25582 31.0887L7.25159 31.1L8.18795 31.4511ZM8.44466 32.3331L8.80374 31.3997L8.79587 31.3968L8.44466 32.3331ZM9.23711 31.853L10.1636 32.2293L10.1639 32.2286L9.23711 31.853ZM9.53513 31.129L10.4588 31.5122L10.4588 31.5122L9.53513 31.129ZM10.2305 29.3745L9.29544 29.0199L9.29243 29.0279L9.28955 29.0359L10.2305 29.3745ZM10.8443 28.9726L10.846 27.9726H10.8443V28.9726ZM30.7003 28.9726V27.9726L30.6986 27.9726L30.7003 28.9726ZM31.303 29.3968L30.3612 29.7331L30.3641 29.7412L30.3672 29.7493L31.303 29.3968ZM32.0988 31.3845L33.0232 31.0033L33.0232 31.0033L32.0988 31.3845ZM32.2182 31.6744L31.2935 32.055L31.3003 32.0717L31.3078 32.0881L32.2182 31.6744ZM32.3745 32.0316L33.287 31.6227L33.2849 31.6179L32.3745 32.0316ZM33.0888 32.3219L32.5221 31.4978L32.5107 31.5059L33.0888 32.3219ZM33.3567 31.6074L32.4055 31.9161L32.408 31.9235L33.3567 31.6074ZM19.3364 27.2061L19.3391 26.2061H19.3391L19.3364 27.2061ZM16.5143 27.2086V28.2086L16.5222 28.2086L16.5143 27.2086ZM15.7553 26.6839L14.7556 26.7066L14.7556 26.7071L15.7553 26.6839ZM4.46683 23.8258V23.3457H2.46683V23.8258H4.46683ZM38.077 22.8146C26.5368 22.8258 15.0412 22.8258 3.46683 22.8258V24.8258C15.041 24.8258 26.5376 24.8258 38.079 24.8146L38.077 22.8146ZM37.078 23.3345V23.8146H39.078V23.3345H37.078ZM37.078 8.31841V23.3345H39.078V8.31841H37.078ZM36.5377 7.80005C36.9526 7.80005 37.0239 7.89396 37.0064 7.87663C36.9864 7.85686 37.078 7.9194 37.078 8.31841H39.078C39.078 7.66796 38.9352 6.97132 38.4129 6.45474C37.8931 5.94059 37.1943 5.80005 36.5377 5.80005V7.80005ZM5.00709 7.80005H36.5377V5.80005H5.00709V7.80005ZM4.46683 8.32957C4.46683 7.91669 4.55942 7.85283 4.53817 7.87409C4.51704 7.89523 4.58372 7.80005 5.00709 7.80005V5.80005C4.34781 5.80005 3.64436 5.93932 3.12376 6.46007C2.60304 6.98094 2.46683 7.68184 2.46683 8.32957H4.46683ZM4.46683 23.3457V8.32957H2.46683V23.3457H4.46683ZM18.8119 19.9801C19.2879 19.7049 19.7579 19.433 20.2244 19.1631L19.2229 17.4319C18.7564 17.7018 18.2866 17.9736 17.8108 18.2487L18.8119 19.9801ZM17.3113 12.5497V19.1144H19.3113V12.5497H17.3113ZM22.4118 13.7658C21.2081 13.0723 20.0203 12.3879 18.8147 11.6856L17.808 13.4138C19.0184 14.1189 20.2103 14.8056 21.4134 15.4988L22.4118 13.7658ZM24.493 14.9664C23.7906 14.5602 23.0986 14.1615 22.4118 13.7658L21.4134 15.4988C22.1004 15.8946 22.791 16.2925 23.4919 16.6978L24.493 14.9664ZM20.2244 19.1631C21.6509 18.3379 23.0459 17.5309 24.4914 16.6987L23.4935 14.9654C22.0459 15.7989 20.6491 16.6069 19.2229 17.4319L20.2244 19.1631ZM31.4102 29.3493C31.5258 29.6437 31.6411 29.9265 31.7511 30.1964L33.6032 29.4414C33.4925 29.1699 33.382 28.8988 33.2718 28.6182L31.4102 29.3493ZM32.3418 27.9837H32.341V29.9837H32.3418V27.9837ZM36.6524 27.9726C35.2622 27.9837 33.849 27.9837 32.3418 27.9837V29.9837C33.8475 29.9837 35.2688 29.9837 36.6684 29.9725L36.6524 27.9726ZM37.0344 27.807C37.0329 27.8381 37.0266 27.8502 37.0252 27.8529C37.0234 27.8563 37.0179 27.866 36.9996 27.8804C36.9597 27.9118 36.8499 27.9697 36.6457 27.9727L36.6751 29.9725C37.7687 29.9564 38.9641 29.2862 39.032 27.9052L37.0344 27.807ZM37.053 25.9099C37.0626 26.5752 37.071 27.1916 37.035 27.7967L39.0315 27.9155C39.0726 27.2242 39.0622 26.5335 39.0528 25.8811L37.053 25.9099ZM37.0444 25.0092C37.0444 25.3141 37.0488 25.6167 37.053 25.9099L39.0528 25.8811C39.0485 25.5855 39.0444 25.2973 39.0444 25.0092H37.0444ZM3.45557 26.0092H38.0444V24.0092H3.45557V26.0092ZM4.45557 27.3761V25.0092H2.45557V27.3761H4.45557ZM5.04047 27.9726C4.82616 27.9726 4.69274 27.9494 4.61501 27.9256C4.57815 27.9143 4.55769 27.904 4.5483 27.8986C4.54355 27.8959 4.54095 27.894 4.53988 27.8931C4.5393 27.8927 4.53897 27.8924 4.53882 27.8923C4.53868 27.8922 4.53861 27.8921 4.53859 27.8921C4.53856 27.8921 4.53848 27.892 4.53831 27.8918C4.53814 27.8916 4.5378 27.8912 4.53729 27.8905C4.53633 27.8892 4.53427 27.8863 4.53133 27.8812C4.5255 27.871 4.51485 27.8494 4.50326 27.8112C4.47886 27.7307 4.45557 27.594 4.45557 27.3761H2.45557C2.45557 28.048 2.59045 28.7693 3.12035 29.3023C3.65163 29.8366 4.37186 29.9726 5.04047 29.9726V27.9726ZM9.18131 27.9726H5.04047V29.9726H9.18131V27.9726ZM9.11584 31.8239C9.43933 31.0205 9.76376 30.2149 10.1106 29.3418L8.25198 28.6033C7.90704 29.4715 7.58427 30.2731 7.26059 31.0769L9.11584 31.8239ZM9.11558 31.8246L9.11584 31.8239L7.26059 31.0769L7.26033 31.0776L9.11558 31.8246ZM8.79587 31.3968C8.79891 31.3979 8.86916 31.4251 8.94602 31.5119C9.02866 31.6052 9.07124 31.7135 9.08578 31.8032C9.09825 31.8801 9.08719 31.9232 9.08975 31.9102C9.09205 31.8986 9.10041 31.8659 9.12431 31.8021L7.25159 31.1C7.17859 31.2948 7.04118 31.6892 7.11155 32.1233C7.1512 32.3678 7.25517 32.6192 7.44872 32.8378C7.6365 33.0498 7.86719 33.1845 8.09345 33.2694L8.79587 31.3968ZM8.31061 31.4767C8.28698 31.5349 8.27176 31.562 8.2669 31.5697C8.26151 31.5783 8.28239 31.5414 8.34117 31.4963C8.40872 31.4445 8.50636 31.3978 8.62148 31.385C8.72975 31.373 8.79718 31.3972 8.80373 31.3997L8.0856 33.2664C8.57965 33.4564 9.11761 33.4212 9.55825 33.0833C9.90695 32.8159 10.0783 32.4394 10.1636 32.2293L8.31061 31.4767ZM8.61146 30.7459C8.51177 30.9861 8.41021 31.231 8.31034 31.4774L10.1639 32.2286C10.2602 31.991 10.3586 31.7538 10.4588 31.5122L8.61146 30.7459ZM9.28955 29.0359C9.08591 29.6017 8.85425 30.1606 8.61146 30.7459L10.4588 31.5122C10.6985 30.9343 10.9489 30.3314 11.1714 29.7131L9.28955 29.0359ZM10.8443 27.9726C10.6272 27.9726 10.2761 27.9927 9.93854 28.2001C9.57946 28.4207 9.39815 28.7491 9.29544 29.0199L11.1655 29.7291C11.1856 29.6761 11.1493 29.8035 10.9856 29.9041C10.8433 29.9916 10.7378 29.9726 10.8443 29.9726V27.9726ZM30.6986 27.9726C24.0811 27.9837 17.4635 27.9837 10.846 27.9726L10.8427 29.9726C17.4624 29.9837 24.0822 29.9837 30.702 29.9726L30.6986 27.9726ZM32.2448 29.0606C32.1619 28.8284 32.0087 28.4959 31.672 28.2546C31.3329 28.0116 30.9642 27.9726 30.7003 27.9726V29.9726C30.7824 29.9726 30.6592 29.9893 30.507 29.8803C30.3573 29.773 30.3325 29.6526 30.3612 29.7331L32.2448 29.0606ZM33.0232 31.0033C32.7499 30.3406 32.4857 29.6996 32.2388 29.0443L30.3672 29.7493C30.6267 30.4383 30.9029 31.1077 31.1743 31.7658L33.0232 31.0033ZM33.1429 31.2937C33.1029 31.1966 33.063 31.0997 33.0232 31.0033L31.1743 31.7658C31.2141 31.8623 31.2538 31.9586 31.2935 32.055L33.1429 31.2937ZM33.2155 31.4591C33.1909 31.4018 33.1617 31.3335 33.1286 31.2607L31.3078 32.0881C31.3305 32.1381 31.3515 32.187 31.3772 32.2468L33.2155 31.4591ZM33.2849 31.6179C33.2622 31.5679 33.2412 31.519 33.2155 31.4591L31.3772 32.2468C31.4017 32.3042 31.431 32.3725 31.4641 32.4453L33.2849 31.6179ZM32.5107 31.5059C32.5717 31.4627 32.6646 31.4194 32.7828 31.4073C32.9002 31.3953 33.0061 31.4179 33.0881 31.4539C33.2414 31.5214 33.2849 31.6179 33.287 31.6227L31.4619 32.4406C31.6091 32.7691 31.8758 33.1057 32.2831 33.2848C32.7329 33.4826 33.2474 33.4351 33.6669 33.1378L32.5107 31.5059ZM32.408 31.9235C32.3616 31.7845 32.3732 31.685 32.3753 31.6673C32.3787 31.6391 32.3833 31.63 32.3812 31.6357C32.3793 31.6406 32.3794 31.6378 32.388 31.6251C32.3916 31.6198 32.4305 31.561 32.5222 31.4979L33.6554 33.1459C33.9837 32.9201 34.1626 32.5759 34.2484 32.3522C34.3286 32.1434 34.4496 31.7241 34.3054 31.2912L32.408 31.9235ZM31.7511 30.1964C32.0032 30.8148 32.2253 31.3608 32.4055 31.9161L34.3078 31.2986C34.1011 30.6617 33.8503 30.0476 33.6032 29.4414L31.7511 30.1964ZM20.7444 28.2086H24.9857V26.2086H20.7444V28.2086ZM19.3338 28.2061C19.8036 28.2074 20.2745 28.2086 20.7444 28.2086V26.2086C20.2776 26.2086 19.8093 26.2074 19.3391 26.2061L19.3338 28.2061ZM16.5222 28.2086C17.454 28.2012 18.3916 28.2036 19.3338 28.2061L19.3391 26.2061C18.3987 26.2036 17.4505 26.2011 16.5063 26.2086L16.5222 28.2086ZM14.7556 26.7071C14.7613 26.9533 14.8149 27.2223 14.9625 27.4741C15.1145 27.7333 15.3276 27.9086 15.5458 28.0189C15.9244 28.2101 16.3372 28.2086 16.5143 28.2086V26.2086C16.4335 26.2086 16.3912 26.2058 16.3687 26.2028C16.3447 26.1996 16.3827 26.2009 16.4475 26.2337C16.5248 26.2727 16.62 26.3468 16.6879 26.4627C16.7515 26.5711 16.7549 26.6544 16.755 26.6606L14.7556 26.7071ZM16.5254 25.0922C16.2806 25.0922 15.8501 25.1132 15.4618 25.3493C14.9689 25.6491 14.7432 26.1602 14.7556 26.7066L16.755 26.6611C16.7551 26.6632 16.756 26.7343 16.7065 26.8329C16.6536 26.9382 16.5738 27.0139 16.5008 27.0583C16.4379 27.0965 16.3975 27.1014 16.4112 27.0988C16.4235 27.0966 16.4586 27.0922 16.5254 27.0922V25.0922ZM24.9969 25.0922H16.5254V27.0922H24.9969V25.0922ZM26.7781 26.6727C26.7781 26.4211 26.7291 26.1524 26.5923 25.8993C26.4526 25.6408 26.252 25.4556 26.038 25.3321C25.6522 25.1095 25.2299 25.0922 24.9969 25.0922V27.0922C25.0643 27.0922 25.1013 27.0962 25.1167 27.0989C25.1336 27.1019 25.0976 27.0985 25.0383 27.0643C24.9694 27.0246 24.8888 26.9538 24.8328 26.8502C24.7798 26.752 24.7781 26.6787 24.7781 26.6727H26.7781ZM24.9857 28.2086C25.1407 28.2086 25.568 28.2186 25.9519 28.0392C26.179 27.933 26.4088 27.7558 26.5709 27.4806C26.7278 27.2143 26.7781 26.9292 26.7781 26.6727H24.7781C24.7781 26.6725 24.7781 26.6505 24.7869 26.6134C24.796 26.5749 24.8139 26.5228 24.8476 26.4656C24.9222 26.339 25.0271 26.2637 25.105 26.2273C25.1681 26.1978 25.2014 26.1991 25.1657 26.203C25.1317 26.2067 25.0806 26.2086 24.9857 26.2086V28.2086Z" fill="#E60000" mask="url(#path-1-inside-1_58_332)"/>
</g>
</g>
<defs>
<filter id="filter0_b_58_332" x="-8.54443" y="-5.19995" width="58.6224" height="49.604" filterUnits="userSpaceOnUse" color-interpolation-filters="sRGB">
<feFlood flood-opacity="0" result="BackgroundImageFix"/>
<feGaussianBlur in="BackgroundImageFix" stdDeviation="6"/>
<feComposite in2="SourceAlpha" operator="in" result="effect1_backgroundBlur_58_332"/>
<feBlend mode="normal" in="SourceGraphic" in2="effect1_backgroundBlur_58_332" result="shape"/>
</filter>
<clipPath id="clip0_58_332">
<rect width="34.6" height="25.6" fill="white" transform="translate(3.46674 6.80005)"/>
</clipPath>
</defs>
</svg>
