<svg width="37" height="28" viewBox="0 0 37 28" fill="none" xmlns="http://www.w3.org/2000/svg">
<path d="M22.8978 14.8855H31.2216V12.9688H22.8978V14.8855ZM22.8978 9.57633H31.2216V7.65967H22.8978V9.57633ZM5.77838 20.3403H19.286V20.0222C19.286 18.9041 18.6872 18.0384 17.4894 17.4251C16.2916 16.8117 14.6392 16.5051 12.5322 16.5051C10.4252 16.5051 8.77214 16.8117 7.573 17.4251C6.37386 18.0384 5.77565 18.9041 5.77838 20.0222V20.3403ZM12.5322 13.4097C13.3938 13.4097 14.1193 13.133 14.7086 12.5797C15.2993 12.0252 15.5947 11.3435 15.5947 10.5347C15.5947 9.72583 15.2993 9.04478 14.7086 8.4915C14.1179 7.93822 13.3924 7.66094 12.5322 7.65967C11.672 7.65839 10.9465 7.93567 10.3558 8.4915C9.76507 9.04733 9.46971 9.72839 9.46971 10.5347C9.46971 11.3409 9.76507 12.0226 10.3558 12.5797C10.9465 13.1369 11.672 13.4135 12.5322 13.4097ZM3.42433 27.4167C2.48381 27.4167 1.69913 27.1215 1.07029 26.5312C0.441458 25.9408 0.126361 25.2036 0.125 24.3193V3.68067C0.125 2.79772 0.440097 2.06108 1.07029 1.47075C1.70049 0.880415 2.48449 0.58461 3.42229 0.583332H33.5777C34.5169 0.583332 35.3009 0.879137 35.9297 1.47075C36.5585 2.06236 36.8736 2.799 36.875 3.68067V24.3213C36.875 25.2029 36.5599 25.9396 35.9297 26.5312C35.2995 27.1228 34.5155 27.4179 33.5777 27.4167H3.42433Z" fill="white"/>
</svg>
