<svg width="31" height="31" viewBox="0 0 31 31" fill="none" xmlns="http://www.w3.org/2000/svg">
<g clip-path="url(#clip0_652_55)">
<path fill-rule="evenodd" clip-rule="evenodd" d="M15.314 0.104645C6.97321 0.104645 0.191895 6.88596 0.191895 15.2267C0.191895 23.5675 6.97321 30.3488 15.314 30.3488C23.6548 30.3488 30.4361 23.5675 30.4361 15.2267C30.4361 6.88596 23.6548 0.104645 15.314 0.104645Z" fill="#4BAE4F"/>
<path d="M12.4018 22.1439C10.4702 20.2123 8.55038 18.263 6.61286 16.3314C6.40021 16.1187 6.40021 15.7643 6.61286 15.5516L8.83982 13.3247C9.05248 13.112 9.4069 13.112 9.61956 13.3247L12.8035 16.5086L20.9907 8.31547C21.2092 8.10281 21.5577 8.10281 21.7763 8.31547L24.0092 10.5483C24.2277 10.7669 24.2277 11.1154 24.0092 11.3281L13.1815 22.1439C12.9689 22.3625 12.6203 22.3625 12.4018 22.1439Z" fill="white"/>
</g>
<defs>
<clipPath id="clip0_652_55">
<rect width="30.2442" height="30.2442" fill="white" transform="translate(0.191895 0.104645)"/>
</clipPath>
</defs>
</svg>
