<svg width="29" height="30" viewBox="0 0 29 30" fill="none" xmlns="http://www.w3.org/2000/svg">
<path d="M14.4592 14.3111C18.1518 14.3111 21.1453 11.3176 21.1453 7.62501C21.1453 3.93241 18.1518 0.938965 14.4592 0.938965C10.7666 0.938965 7.77319 3.93241 7.77319 7.62501C7.77319 11.3176 10.7666 14.3111 14.4592 14.3111Z" fill="#ED2024"/>
<path d="M15.8767 15.6483H13.0418C11.3788 15.6536 9.73314 15.9863 8.19876 16.6276C6.66438 17.2689 5.27133 18.206 4.09915 19.3857C2.92697 20.5653 1.99862 21.9643 1.36709 23.5027C0.73557 25.0411 0.413244 26.6888 0.418521 28.3518C0.418521 28.5291 0.488963 28.6992 0.614351 28.8246C0.739738 28.95 0.9098 29.0204 1.08713 29.0204H27.8313C28.0169 29.0035 28.1891 28.9168 28.3132 28.7778C28.4374 28.6388 28.5041 28.4579 28.4999 28.2716C28.4929 24.9258 27.1606 21.7192 24.7948 19.3534C22.4291 16.9876 19.2224 15.6554 15.8767 15.6483Z" fill="#ED2024"/>
</svg>
